<svg preserveAspectRatio="none" width="100%" height="100%" overflow="visible" style="display: block;" viewBox="0 0 283 207" fill="none" xmlns="http://www.w3.org/2000/svg">
<path id="Forme" fill-rule="evenodd" clip-rule="evenodd" d="M4.90625 198.171C5.98304 198.171 6.9594 198.611 7.66665 199.319C8.37413 200.028 8.8125 201.006 8.8125 202.086C8.8125 203.165 8.37405 204.143 7.66649 204.852C6.95926 205.561 5.98296 206 4.90625 206C3.82954 206 2.85324 205.561 2.14601 204.852C1.43845 204.143 1 203.165 1 202.086C1 201.006 1.43837 200.028 2.14585 199.319C2.8531 198.611 3.82946 198.171 4.90625 198.171ZM4.90625 198.498C3.91885 198.498 3.02309 198.901 2.37434 199.551C1.72604 200.2 1.32459 201.097 1.32459 202.086C1.32459 203.075 1.72604 203.971 2.37434 204.621C3.02309 205.271 3.91885 205.673 4.90625 205.673C5.89395 205.673 6.78961 205.271 7.43825 204.621C8.08656 203.972 8.48791 203.075 8.48791 202.086C8.48791 201.097 8.08656 200.2 7.43825 199.55C6.78961 198.901 5.89395 198.498 4.90625 198.498ZM233.23 146.671C233.307 146.671 233.383 146.701 233.443 146.761C233.502 146.82 233.531 146.897 233.531 146.974C233.531 147.052 233.502 147.13 233.442 147.189L230.051 150.585L233.442 153.983C233.502 154.042 233.531 154.119 233.531 154.197C233.531 154.275 233.502 154.352 233.442 154.412C233.384 154.47 233.307 154.5 233.23 154.5C233.153 154.5 233.076 154.47 233.017 154.412L229.625 151.013L226.233 154.412C226.174 154.47 226.097 154.5 226.02 154.5C225.943 154.5 225.866 154.47 225.808 154.412C225.748 154.352 225.719 154.275 225.719 154.197C225.719 154.119 225.748 154.042 225.808 153.983L229.198 150.585L225.808 147.189C225.748 147.13 225.719 147.052 225.719 146.974C225.719 146.897 225.748 146.82 225.808 146.76C225.867 146.701 225.943 146.671 226.02 146.671L229.625 150.157L233.017 146.76C233.076 146.701 233.153 146.671 233.23 146.671ZM56.9796 137.843C57.0568 137.843 57.1338 137.873 57.1927 137.932C57.2517 137.991 57.281 138.068 57.281 138.146C57.281 138.224 57.2514 138.301 57.1927 138.36L53.8012 141.757L57.1923 145.154C57.2515 145.213 57.2812 145.291 57.2812 145.368C57.2812 145.446 57.2515 145.524 57.1923 145.583C57.1337 145.642 57.0567 145.671 56.9796 145.671C56.9026 145.671 56.8256 145.642 56.7669 145.583L53.3747 142.184L49.9831 145.583C49.9244 145.642 49.8474 145.671 49.7704 145.671C49.6933 145.671 49.6163 145.642 49.5577 145.583C49.4985 145.524 49.4688 145.446 49.4688 145.368C49.4688 145.291 49.4985 145.213 49.5577 145.154L52.9482 141.757L49.5578 138.361C49.4986 138.301 49.469 138.224 49.469 138.146C49.469 138.068 49.4983 137.991 49.5573 137.932C49.6162 137.873 49.6932 137.843 49.7704 137.843L53.3747 141.33L56.7677 137.931C56.8262 137.872 56.9029 137.843 56.9796 137.843ZM229.625 62.8C230.702 62.8 231.678 63.2391 232.385 63.9475C233.093 64.6563 233.531 65.6348 233.531 66.714C233.531 67.7934 233.093 68.7721 232.385 69.4809C231.678 70.1895 230.702 70.6286 229.625 70.6286C228.548 70.6286 227.572 70.1894 226.865 69.4809C226.157 68.772 225.719 67.7933 225.719 66.714C225.719 65.6349 226.157 64.6563 226.865 63.9475C227.572 63.2391 228.548 62.8 229.625 62.8ZM229.625 63.1269C228.637 63.1269 227.742 63.529 227.093 64.1789C226.445 64.8283 226.043 65.725 226.043 66.714C226.043 67.7029 226.445 68.5998 227.093 69.2494C227.742 69.8994 228.637 70.3017 229.625 70.3017C230.612 70.3017 231.508 69.8994 232.157 69.2494C232.805 68.5997 233.207 67.7029 233.207 66.714C233.207 65.7251 232.805 64.8284 232.157 64.1789C231.508 63.5291 230.612 63.1269 229.625 63.1269ZM281.699 1C281.776 1 281.852 1.02935 281.911 1.08807C281.97 1.14742 282 1.22513 282 1.30283C282 1.38019 281.97 1.45755 281.911 1.51695L278.52 4.91399L281.911 8.31119C281.97 8.37049 282 8.44804 282 8.52565C282 8.60325 281.97 8.6808 281.911 8.7401C281.852 8.79888 281.775 8.82857 281.698 8.82857C281.621 8.82857 281.544 8.79888 281.486 8.74011L278.093 5.34117L274.702 8.7401C274.643 8.79888 274.566 8.82857 274.489 8.82857C274.412 8.82857 274.335 8.79888 274.276 8.7401C274.217 8.6808 274.188 8.60325 274.188 8.52565C274.188 8.44804 274.217 8.37049 274.276 8.31118L277.667 4.91399L274.276 1.51653C274.217 1.45755 274.188 1.38019 274.188 1.30283C274.188 1.22513 274.217 1.14742 274.276 1.08807C274.335 1.02935 274.412 1 274.489 1L278.093 4.48571L281.485 1.08852C281.544 1.02957 281.621 1 281.699 1ZM55.9548 1.97195C56.7642 2.68461 57.2086 3.66087 57.2731 4.66144C57.3375 5.66199 57.0221 6.68717 56.3107 7.49789C55.6251 8.2796 54.6777 8.749 53.6415 8.81938C52.4344 8.8249 51.5213 8.49189 50.7972 7.85359C50.0131 7.16392 49.5446 6.20938 49.477 5.16517C49.4101 4.1218 49.7524 3.11428 50.4422 2.32844C51.153 1.51788 52.1267 1.07275 53.1248 1.00821C54.123 0.943665 55.1457 1.25966 55.9548 1.97195ZM53.3781 1.32693C52.3827 1.32693 51.3921 1.739 50.6847 2.54485C50.0535 3.26522 49.7395 4.18804 49.8018 5.14476C49.8634 6.10043 50.2929 6.97543 51.0109 7.60762C51.7305 8.2413 52.6545 8.55847 53.6081 8.49365C54.5618 8.43206 55.4356 8.00101 56.0669 7.28141C56.7186 6.5387 57.0083 5.59965 56.9493 4.68279C56.8904 3.76592 56.4829 2.87156 55.7414 2.21822C55.0619 1.62083 54.2181 1.32693 53.3781 1.32693Z" stroke="var(--stroke-0, #E5E5E5)"/>
</svg>
