<svg preserveAspectRatio="none" width="100%" height="100%" overflow="visible" style="display: block;" viewBox="0 0 247 319" fill="none" xmlns="http://www.w3.org/2000/svg">
<path id="Trame" fill-rule="evenodd" clip-rule="evenodd" d="M2.20536 314.6C3.42334 314.6 4.41071 315.585 4.41071 316.8C4.41071 318.015 3.42334 319 2.20536 319C0.987371 319 0 318.015 0 316.8C0 315.585 0.987371 314.6 2.20536 314.6ZM18.378 314.6C19.596 314.6 20.5833 315.585 20.5833 316.8C20.5833 318.015 19.596 319 18.378 319C17.16 319 16.1726 318.015 16.1726 316.8C16.1726 315.585 17.16 314.6 18.378 314.6ZM34.5506 314.6C35.7686 314.6 36.756 315.585 36.756 316.8C36.756 318.015 35.7686 319 34.5506 319C33.3326 319 32.3452 318.015 32.3452 316.8C32.3452 315.585 33.3326 314.6 34.5506 314.6ZM50.7232 314.6C51.9412 314.6 52.9286 315.585 52.9286 316.8C52.9286 318.015 51.9412 319 50.7232 319C49.5052 319 48.5179 318.015 48.5179 316.8C48.5179 315.585 49.5052 314.6 50.7232 314.6ZM66.8958 314.6C68.1138 314.6 69.1012 315.585 69.1012 316.8C69.1012 318.015 68.1138 319 66.8958 319C65.6779 319 64.6905 318.015 64.6905 316.8C64.6905 315.585 65.6779 314.6 66.8958 314.6ZM83.0685 314.6C84.2864 314.6 85.2738 315.585 85.2738 316.8C85.2738 318.015 84.2864 319 83.0685 319C81.8505 319 80.8631 318.015 80.8631 316.8C80.8631 315.585 81.8505 314.6 83.0685 314.6ZM99.2411 314.6C100.459 314.6 101.446 315.585 101.446 316.8C101.446 318.015 100.459 319 99.2411 319C98.0231 319 97.0357 318.015 97.0357 316.8C97.0357 315.585 98.0231 314.6 99.2411 314.6ZM115.414 314.6C116.632 314.6 117.619 315.585 117.619 316.8C117.619 318.015 116.632 319 115.414 319C114.196 319 113.208 318.015 113.208 316.8C113.208 315.585 114.196 314.6 115.414 314.6ZM131.586 314.6C132.804 314.6 133.792 315.585 133.792 316.8C133.792 318.015 132.804 319 131.586 319C130.368 319 129.381 318.015 129.381 316.8C129.381 315.585 130.368 314.6 131.586 314.6ZM147.759 314.508C148.977 314.508 149.964 315.493 149.964 316.708C149.964 317.923 148.977 318.908 147.759 318.908C146.541 318.908 145.554 317.923 145.554 316.708C145.554 315.493 146.541 314.508 147.759 314.508ZM163.932 314.508C165.15 314.508 166.137 315.493 166.137 316.708C166.137 317.923 165.15 318.908 163.932 318.908C162.714 318.908 161.726 317.923 161.726 316.708C161.726 315.493 162.714 314.508 163.932 314.508ZM180.104 314.508C181.322 314.508 182.31 315.493 182.31 316.708C182.31 317.923 181.322 318.908 180.104 318.908C178.886 318.908 177.899 317.923 177.899 316.708C177.899 315.493 178.886 314.508 180.104 314.508ZM196.277 314.508C197.495 314.508 198.482 315.493 198.482 316.708C198.482 317.923 197.495 318.908 196.277 318.908C195.059 318.908 194.071 317.923 194.071 316.708C194.071 315.493 195.059 314.508 196.277 314.508ZM212.449 314.508C213.667 314.508 214.655 315.493 214.655 316.708C214.655 317.923 213.667 318.908 212.449 318.908C211.231 318.908 210.244 317.923 210.244 316.708C210.244 315.493 211.231 314.508 212.449 314.508ZM228.622 314.508C229.84 314.508 230.827 315.493 230.827 316.708C230.827 317.923 229.84 318.908 228.622 318.908C227.404 318.908 226.417 317.923 226.417 316.708C226.417 315.493 227.404 314.508 228.622 314.508ZM244.795 314.508C246.013 314.508 247 315.493 247 316.708C247 317.923 246.013 318.908 244.795 318.908C243.577 318.908 242.589 317.923 242.589 316.708C242.589 315.493 243.577 314.508 244.795 314.508ZM131.586 298.467C132.804 298.467 133.792 299.452 133.792 300.667C133.792 301.882 132.804 302.867 131.586 302.867C130.368 302.867 129.381 301.882 129.381 300.667C129.381 299.452 130.368 298.467 131.586 298.467ZM147.759 298.374C148.977 298.374 149.964 299.359 149.964 300.574C149.964 301.789 148.977 302.774 147.759 302.774C146.541 302.774 145.554 301.789 145.554 300.574C145.554 299.359 146.541 298.374 147.759 298.374ZM163.932 298.374C165.15 298.374 166.137 299.359 166.137 300.574C166.137 301.789 165.15 302.774 163.932 302.774C162.714 302.774 161.726 301.789 161.726 300.574C161.726 299.359 162.714 298.374 163.932 298.374ZM180.104 298.374C181.322 298.374 182.31 299.359 182.31 300.574C182.31 301.789 181.322 302.774 180.104 302.774C178.886 302.774 177.899 301.789 177.899 300.574C177.899 299.359 178.886 298.374 180.104 298.374ZM2.20536 298.467C3.42334 298.467 4.41071 299.452 4.41071 300.667C4.41071 301.882 3.42334 302.867 2.20536 302.867C0.987371 302.867 0 301.882 0 300.667C0 299.452 0.987371 298.467 2.20536 298.467ZM34.5506 298.467C35.7686 298.467 36.756 299.452 36.756 300.667C36.756 301.882 35.7686 302.867 34.5506 302.867C33.3326 302.867 32.3452 301.882 32.3452 300.667C32.3452 299.452 33.3326 298.467 34.5506 298.467ZM66.8958 298.467C68.1138 298.467 69.1012 299.452 69.1012 300.667C69.1012 301.882 68.1138 302.867 66.8958 302.867C65.6779 302.867 64.6905 301.882 64.6905 300.667C64.6905 299.452 65.6779 298.467 66.8958 298.467ZM99.2411 298.467C100.459 298.467 101.446 299.452 101.446 300.667C101.446 301.882 100.459 302.867 99.2411 302.867C98.0231 302.867 97.0357 301.882 97.0357 300.667C97.0357 299.452 98.0231 298.467 99.2411 298.467ZM115.414 298.467C116.632 298.467 117.619 299.452 117.619 300.667C117.619 301.882 116.632 302.867 115.414 302.867C114.196 302.867 113.208 301.882 113.208 300.667C113.208 299.452 114.196 298.467 115.414 298.467ZM212.449 298.374C213.667 298.374 214.655 299.359 214.655 300.574C214.655 301.789 213.667 302.774 212.449 302.774C211.231 302.774 210.244 301.789 210.244 300.574C210.244 299.359 211.231 298.374 212.449 298.374ZM18.378 298.467C19.596 298.467 20.5833 299.452 20.5833 300.667C20.5833 301.882 19.596 302.867 18.378 302.867C17.16 302.867 16.1726 301.882 16.1726 300.667C16.1726 299.452 17.16 298.467 18.378 298.467ZM228.622 298.374C229.84 298.374 230.827 299.359 230.827 300.574C230.827 301.789 229.84 302.774 228.622 302.774C227.404 302.774 226.417 301.789 226.417 300.574C226.417 299.359 227.404 298.374 228.622 298.374ZM50.7232 298.467C51.9412 298.467 52.9286 299.452 52.9286 300.667C52.9286 301.882 51.9412 302.867 50.7232 302.867C49.5052 302.867 48.5179 301.882 48.5179 300.667C48.5179 299.452 49.5052 298.467 50.7232 298.467ZM244.795 298.374C246.013 298.374 247 299.359 247 300.574C247 301.789 246.013 302.774 244.795 302.774C243.577 302.774 242.589 301.789 242.589 300.574C242.589 299.359 243.577 298.374 244.795 298.374ZM83.0685 298.467C84.2864 298.467 85.2738 299.452 85.2738 300.667C85.2738 301.882 84.2864 302.867 83.0685 302.867C81.8505 302.867 80.8631 301.882 80.8631 300.667C80.8631 299.452 81.8505 298.467 83.0685 298.467ZM196.277 298.374C197.495 298.374 198.482 299.359 198.482 300.574C198.482 301.789 197.495 302.774 196.277 302.774C195.059 302.774 194.071 301.789 194.071 300.574C194.071 299.359 195.059 298.374 196.277 298.374ZM34.5506 282.333C35.7686 282.333 36.756 283.318 36.756 284.533C36.756 285.748 35.7686 286.733 34.5506 286.733C33.3326 286.733 32.3452 285.748 32.3452 284.533C32.3452 283.318 33.3326 282.333 34.5506 282.333ZM66.8958 282.333C68.1138 282.333 69.1012 283.318 69.1012 284.533C69.1012 285.748 68.1138 286.733 66.8958 286.733C65.6779 286.733 64.6905 285.748 64.6905 284.533C64.6905 283.318 65.6779 282.333 66.8958 282.333ZM83.0685 282.333C84.2864 282.333 85.2738 283.318 85.2738 284.533C85.2738 285.748 84.2864 286.733 83.0685 286.733C81.8505 286.733 80.8631 285.748 80.8631 284.533C80.8631 283.318 81.8505 282.333 83.0685 282.333ZM99.2411 282.333C100.459 282.333 101.446 283.318 101.446 284.533C101.446 285.748 100.459 286.733 99.2411 286.733C98.0231 286.733 97.0357 285.748 97.0357 284.533C97.0357 283.318 98.0231 282.333 99.2411 282.333ZM115.414 282.333C116.632 282.333 117.619 283.318 117.619 284.533C117.619 285.748 116.632 286.733 115.414 286.733C114.196 286.733 113.208 285.748 113.208 284.533C113.208 283.318 114.196 282.333 115.414 282.333ZM2.20536 282.333C3.42334 282.333 4.41071 283.318 4.41071 284.533C4.41071 285.748 3.42334 286.733 2.20536 286.733C0.987371 286.733 0 285.748 0 284.533C0 283.318 0.987371 282.333 2.20536 282.333ZM18.378 282.333C19.596 282.333 20.5833 283.318 20.5833 284.533C20.5833 285.748 19.596 286.733 18.378 286.733C17.16 286.733 16.1726 285.748 16.1726 284.533C16.1726 283.318 17.16 282.333 18.378 282.333ZM50.7232 282.333C51.9412 282.333 52.9286 283.318 52.9286 284.533C52.9286 285.748 51.9412 286.733 50.7232 286.733C49.5052 286.733 48.5179 285.748 48.5179 284.533C48.5179 283.318 49.5052 282.333 50.7232 282.333ZM131.586 282.333C132.804 282.333 133.792 283.318 133.792 284.533C133.792 285.748 132.804 286.733 131.586 286.733C130.368 286.733 129.381 285.748 129.381 284.533C129.381 283.318 130.368 282.333 131.586 282.333ZM147.759 282.241C148.977 282.241 149.964 283.226 149.964 284.441C149.964 285.656 148.977 286.641 147.759 286.641C146.541 286.641 145.554 285.656 145.554 284.441C145.554 283.226 146.541 282.241 147.759 282.241ZM163.932 282.241C165.15 282.241 166.137 283.226 166.137 284.441C166.137 285.656 165.15 286.641 163.932 286.641C162.714 286.641 161.726 285.656 161.726 284.441C161.726 283.226 162.714 282.241 163.932 282.241ZM180.104 282.241C181.322 282.241 182.31 283.226 182.31 284.441C182.31 285.656 181.322 286.641 180.104 286.641C178.886 286.641 177.899 285.656 177.899 284.441C177.899 283.226 178.886 282.241 180.104 282.241ZM196.277 282.241C197.495 282.241 198.482 283.226 198.482 284.441C198.482 285.656 197.495 286.641 196.277 286.641C195.059 286.641 194.071 285.656 194.071 284.441C194.071 283.226 195.059 282.241 196.277 282.241ZM212.449 282.241C213.667 282.241 214.655 283.226 214.655 284.441C214.655 285.656 213.667 286.641 212.449 286.641C211.231 286.641 210.244 285.656 210.244 284.441C210.244 283.226 211.231 282.241 212.449 282.241ZM228.622 282.241C229.84 282.241 230.827 283.226 230.827 284.441C230.827 285.656 229.84 286.641 228.622 286.641C227.404 286.641 226.417 285.656 226.417 284.441C226.417 283.226 227.404 282.241 228.622 282.241ZM244.795 282.241C246.013 282.241 247 283.226 247 284.441C247 285.656 246.013 286.641 244.795 286.641C243.577 286.641 242.589 285.656 242.589 284.441C242.589 283.226 243.577 282.241 244.795 282.241ZM2.20536 266.2C3.42334 266.2 4.41071 267.185 4.41071 268.4C4.41071 269.615 3.42334 270.6 2.20536 270.6C0.987371 270.6 0 269.615 0 268.4C0 267.185 0.987371 266.2 2.20536 266.2ZM18.378 266.2C19.596 266.2 20.5833 267.185 20.5833 268.4C20.5833 269.615 19.596 270.6 18.378 270.6C17.16 270.6 16.1726 269.615 16.1726 268.4C16.1726 267.185 17.16 266.2 18.378 266.2ZM34.5506 266.2C35.7686 266.2 36.756 267.185 36.756 268.4C36.756 269.615 35.7686 270.6 34.5506 270.6C33.3326 270.6 32.3452 269.615 32.3452 268.4C32.3452 267.185 33.3326 266.2 34.5506 266.2ZM50.7232 266.2C51.9412 266.2 52.9286 267.185 52.9286 268.4C52.9286 269.615 51.9412 270.6 50.7232 270.6C49.5052 270.6 48.5179 269.615 48.5179 268.4C48.5179 267.185 49.5052 266.2 50.7232 266.2ZM66.8958 266.2C68.1138 266.2 69.1012 267.185 69.1012 268.4C69.1012 269.615 68.1138 270.6 66.8958 270.6C65.6779 270.6 64.6905 269.615 64.6905 268.4C64.6905 267.185 65.6779 266.2 66.8958 266.2ZM83.0685 266.2C84.2864 266.2 85.2738 267.185 85.2738 268.4C85.2738 269.615 84.2864 270.6 83.0685 270.6C81.8505 270.6 80.8631 269.615 80.8631 268.4C80.8631 267.185 81.8505 266.2 83.0685 266.2ZM99.2411 266.2C100.459 266.2 101.446 267.185 101.446 268.4C101.446 269.615 100.459 270.6 99.2411 270.6C98.0231 270.6 97.0357 269.615 97.0357 268.4C97.0357 267.185 98.0231 266.2 99.2411 266.2ZM115.414 266.2C116.632 266.2 117.619 267.185 117.619 268.4C117.619 269.615 116.632 270.6 115.414 270.6C114.196 270.6 113.208 269.615 113.208 268.4C113.208 267.185 114.196 266.2 115.414 266.2ZM131.586 266.2C132.804 266.2 133.792 267.185 133.792 268.4C133.792 269.615 132.804 270.6 131.586 270.6C130.368 270.6 129.381 269.615 129.381 268.4C129.381 267.185 130.368 266.2 131.586 266.2ZM147.759 266.108C148.977 266.108 149.964 267.093 149.964 268.308C149.964 269.523 148.977 270.508 147.759 270.508C146.541 270.508 145.554 269.523 145.554 268.308C145.554 267.093 146.541 266.108 147.759 266.108ZM163.932 266.108C165.15 266.108 166.137 267.093 166.137 268.308C166.137 269.523 165.15 270.508 163.932 270.508C162.714 270.508 161.726 269.523 161.726 268.308C161.726 267.093 162.714 266.108 163.932 266.108ZM180.104 266.108C181.322 266.108 182.31 267.093 182.31 268.308C182.31 269.523 181.322 270.508 180.104 270.508C178.886 270.508 177.899 269.523 177.899 268.308C177.899 267.093 178.886 266.108 180.104 266.108ZM196.277 266.108C197.495 266.108 198.482 267.093 198.482 268.308C198.482 269.523 197.495 270.508 196.277 270.508C195.059 270.508 194.071 269.523 194.071 268.308C194.071 267.093 195.059 266.108 196.277 266.108ZM212.449 266.108C213.667 266.108 214.655 267.093 214.655 268.308C214.655 269.523 213.667 270.508 212.449 270.508C211.231 270.508 210.244 269.523 210.244 268.308C210.244 267.093 211.231 266.108 212.449 266.108ZM228.622 266.108C229.84 266.108 230.827 267.093 230.827 268.308C230.827 269.523 229.84 270.508 228.622 270.508C227.404 270.508 226.417 269.523 226.417 268.308C226.417 267.093 227.404 266.108 228.622 266.108ZM244.795 266.108C246.013 266.108 247 267.093 247 268.308C247 269.523 246.013 270.508 244.795 270.508C243.577 270.508 242.589 269.523 242.589 268.308C242.589 267.093 243.577 266.108 244.795 266.108ZM2.20536 250.067C3.42334 250.067 4.41071 251.052 4.41071 252.267C4.41071 253.482 3.42334 254.467 2.20536 254.467C0.987371 254.467 0 253.482 0 252.267C0 251.052 0.987371 250.067 2.20536 250.067ZM18.378 250.067C19.596 250.067 20.5833 251.052 20.5833 252.267C20.5833 253.482 19.596 254.467 18.378 254.467C17.16 254.467 16.1726 253.482 16.1726 252.267C16.1726 251.052 17.16 250.067 18.378 250.067ZM34.5506 250.067C35.7686 250.067 36.756 251.052 36.756 252.267C36.756 253.482 35.7686 254.467 34.5506 254.467C33.3326 254.467 32.3452 253.482 32.3452 252.267C32.3452 251.052 33.3326 250.067 34.5506 250.067ZM50.7232 250.067C51.9412 250.067 52.9286 251.052 52.9286 252.267C52.9286 253.482 51.9412 254.467 50.7232 254.467C49.5052 254.467 48.5179 253.482 48.5179 252.267C48.5179 251.052 49.5052 250.067 50.7232 250.067ZM66.8958 250.067C68.1138 250.067 69.1012 251.052 69.1012 252.267C69.1012 253.482 68.1138 254.467 66.8958 254.467C65.6779 254.467 64.6905 253.482 64.6905 252.267C64.6905 251.052 65.6779 250.067 66.8958 250.067ZM83.0685 250.067C84.2864 250.067 85.2738 251.052 85.2738 252.267C85.2738 253.482 84.2864 254.467 83.0685 254.467C81.8505 254.467 80.8631 253.482 80.8631 252.267C80.8631 251.052 81.8505 250.067 83.0685 250.067ZM99.2411 250.067C100.459 250.067 101.446 251.052 101.446 252.267C101.446 253.482 100.459 254.467 99.2411 254.467C98.0231 254.467 97.0357 253.482 97.0357 252.267C97.0357 251.052 98.0231 250.067 99.2411 250.067ZM115.414 250.067C116.632 250.067 117.619 251.052 117.619 252.267C117.619 253.482 116.632 254.467 115.414 254.467C114.196 254.467 113.208 253.482 113.208 252.267C113.208 251.052 114.196 250.067 115.414 250.067ZM131.586 250.067C132.804 250.067 133.792 251.052 133.792 252.267C133.792 253.482 132.804 254.467 131.586 254.467C130.368 254.467 129.381 253.482 129.381 252.267C129.381 251.052 130.368 250.067 131.586 250.067ZM44.8423 2.2C44.8423 3.41503 43.8549 4.4 42.6369 4.4C41.4189 4.4 40.4315 3.41503 40.4315 2.2C40.4315 0.984974 41.4189 0 42.6369 0C43.8549 0 44.8423 0.984974 44.8423 2.2ZM44.8423 18.3333C44.8423 19.5484 43.8549 20.5333 42.6369 20.5333C41.4189 20.5333 40.4315 19.5484 40.4315 18.3333C40.4315 17.1183 41.4189 16.1333 42.6369 16.1333C43.8549 16.1333 44.8423 17.1183 44.8423 18.3333ZM44.8423 34.4667C44.8423 35.6817 43.8549 36.6667 42.6369 36.6667C41.4189 36.6667 40.4315 35.6817 40.4315 34.4667C40.4315 33.2516 41.4189 32.2667 42.6369 32.2667C43.8549 32.2667 44.8423 33.2516 44.8423 34.4667ZM44.8423 50.6C44.8423 51.815 43.8549 52.8 42.6369 52.8C41.4189 52.8 40.4315 51.815 40.4315 50.6C40.4315 49.385 41.4189 48.4 42.6369 48.4C43.8549 48.4 44.8423 49.385 44.8423 50.6ZM44.8423 66.7333C44.8423 67.9484 43.8549 68.9333 42.6369 68.9333C41.4189 68.9333 40.4315 67.9484 40.4315 66.7333C40.4315 65.5183 41.4189 64.5333 42.6369 64.5333C43.8549 64.5333 44.8423 65.5183 44.8423 66.7333ZM44.8423 82.8667C44.8423 84.0817 43.8549 85.0667 42.6369 85.0667C41.4189 85.0667 40.4315 84.0817 40.4315 82.8667C40.4315 81.6516 41.4189 80.6667 42.6369 80.6667C43.8549 80.6667 44.8423 81.6516 44.8423 82.8667ZM44.8423 99C44.8423 100.215 43.8549 101.2 42.6369 101.2C41.4189 101.2 40.4315 100.215 40.4315 99C40.4315 97.785 41.4189 96.8 42.6369 96.8C43.8549 96.8 44.8423 97.785 44.8423 99ZM44.8423 115.133C44.8423 116.348 43.8549 117.333 42.6369 117.333C41.4189 117.333 40.4315 116.348 40.4315 115.133C40.4315 113.918 41.4189 112.933 42.6369 112.933C43.8549 112.933 44.8423 113.918 44.8423 115.133ZM44.8423 131.267C44.8423 132.482 43.8549 133.467 42.6369 133.467C41.4189 133.467 40.4315 132.482 40.4315 131.267C40.4315 130.052 41.4189 129.067 42.6369 129.067C43.8549 129.067 44.8423 130.052 44.8423 131.267ZM44.8423 147.4C44.8423 148.615 43.8549 149.6 42.6369 149.6C41.4189 149.6 40.4315 148.615 40.4315 147.4C40.4315 146.185 41.4189 145.2 42.6369 145.2C43.8549 145.2 44.8423 146.185 44.8423 147.4ZM44.8423 163.533C44.8423 164.748 43.8549 165.733 42.6369 165.733C41.4189 165.733 40.4315 164.748 40.4315 163.533C40.4315 162.318 41.4189 161.333 42.6369 161.333C43.8549 161.333 44.8423 162.318 44.8423 163.533ZM44.8423 179.667C44.8423 180.882 43.8549 181.867 42.6369 181.867C41.4189 181.867 40.4315 180.882 40.4315 179.667C40.4315 178.452 41.4189 177.467 42.6369 177.467C43.8549 177.467 44.8423 178.452 44.8423 179.667ZM44.8423 195.8C44.8423 197.015 43.8549 198 42.6369 198C41.4189 198 40.4315 197.015 40.4315 195.8C40.4315 194.585 41.4189 193.6 42.6369 193.6C43.8549 193.6 44.8423 194.585 44.8423 195.8ZM44.8423 211.933C44.8423 213.148 43.8549 214.133 42.6369 214.133C41.4189 214.133 40.4315 213.148 40.4315 211.933C40.4315 210.718 41.4189 209.733 42.6369 209.733C43.8549 209.733 44.8423 210.718 44.8423 211.933ZM61.0149 99C61.0149 100.215 60.0275 101.2 58.8095 101.2C57.5915 101.2 56.6042 100.215 56.6042 99C56.6042 97.785 57.5915 96.8 58.8095 96.8C60.0275 96.8 61.0149 97.785 61.0149 99ZM61.0149 115.133C61.0149 116.348 60.0275 117.333 58.8095 117.333C57.5915 117.333 56.6042 116.348 56.6042 115.133C56.6042 113.918 57.5915 112.933 58.8095 112.933C60.0275 112.933 61.0149 113.918 61.0149 115.133ZM61.0149 131.267C61.0149 132.482 60.0275 133.467 58.8095 133.467C57.5915 133.467 56.6042 132.482 56.6042 131.267C56.6042 130.052 57.5915 129.067 58.8095 129.067C60.0275 129.067 61.0149 130.052 61.0149 131.267ZM61.0149 147.4C61.0149 148.615 60.0275 149.6 58.8095 149.6C57.5915 149.6 56.6042 148.615 56.6042 147.4C56.6042 146.185 57.5915 145.2 58.8095 145.2C60.0275 145.2 61.0149 146.185 61.0149 147.4ZM61.0149 2.2C61.0149 3.41503 60.0275 4.4 58.8095 4.4C57.5915 4.4 56.6042 3.41503 56.6042 2.2C56.6042 0.984974 57.5915 0 58.8095 0C60.0275 0 61.0149 0.984974 61.0149 2.2ZM61.0149 34.4667C61.0149 35.6817 60.0275 36.6667 58.8095 36.6667C57.5915 36.6667 56.6042 35.6817 56.6042 34.4667C56.6042 33.2516 57.5915 32.2667 58.8095 32.2667C60.0275 32.2667 61.0149 33.2516 61.0149 34.4667ZM61.0149 66.7333C61.0149 67.9484 60.0275 68.9333 58.8095 68.9333C57.5915 68.9333 56.6042 67.9484 56.6042 66.7333C56.6042 65.5183 57.5915 64.5333 58.8095 64.5333C60.0275 64.5333 61.0149 65.5183 61.0149 66.7333ZM61.0149 82.8667C61.0149 84.0817 60.0275 85.0667 58.8095 85.0667C57.5915 85.0667 56.6042 84.0817 56.6042 82.8667C56.6042 81.6516 57.5915 80.6667 58.8095 80.6667C60.0275 80.6667 61.0149 81.6516 61.0149 82.8667ZM61.0149 179.667C61.0149 180.882 60.0275 181.867 58.8095 181.867C57.5915 181.867 56.6042 180.882 56.6042 179.667C56.6042 178.452 57.5915 177.467 58.8095 177.467C60.0275 177.467 61.0149 178.452 61.0149 179.667ZM61.0149 195.8C61.0149 197.015 60.0275 198 58.8095 198C57.5915 198 56.6042 197.015 56.6042 195.8C56.6042 194.585 57.5915 193.6 58.8095 193.6C60.0275 193.6 61.0149 194.585 61.0149 195.8ZM61.0149 18.3333C61.0149 19.5484 60.0275 20.5333 58.8095 20.5333C57.5915 20.5333 56.6042 19.5484 56.6042 18.3333C56.6042 17.1183 57.5915 16.1333 58.8095 16.1333C60.0275 16.1333 61.0149 17.1183 61.0149 18.3333ZM61.0149 211.933C61.0149 213.148 60.0275 214.133 58.8095 214.133C57.5915 214.133 56.6042 213.148 56.6042 211.933C56.6042 210.718 57.5915 209.733 58.8095 209.733C60.0275 209.733 61.0149 210.718 61.0149 211.933ZM61.0149 50.6C61.0149 51.815 60.0275 52.8 58.8095 52.8C57.5915 52.8 56.6042 51.815 56.6042 50.6C56.6042 49.385 57.5915 48.4 58.8095 48.4C60.0275 48.4 61.0149 49.385 61.0149 50.6ZM61.0149 163.533C61.0149 164.748 60.0275 165.733 58.8095 165.733C57.5915 165.733 56.6042 164.748 56.6042 163.533C56.6042 162.318 57.5915 161.333 58.8095 161.333C60.0275 161.333 61.0149 162.318 61.0149 163.533ZM77.1875 2.2C77.1875 3.41503 76.2001 4.4 74.9821 4.4C73.7642 4.4 72.7768 3.41503 72.7768 2.2C72.7768 0.984974 73.7642 0 74.9821 0C76.2001 0 77.1875 0.984974 77.1875 2.2ZM77.1875 34.4667C77.1875 35.6817 76.2001 36.6667 74.9821 36.6667C73.7642 36.6667 72.7768 35.6817 72.7768 34.4667C72.7768 33.2516 73.7642 32.2667 74.9821 32.2667C76.2001 32.2667 77.1875 33.2516 77.1875 34.4667ZM77.1875 50.6C77.1875 51.815 76.2001 52.8 74.9821 52.8C73.7642 52.8 72.7768 51.815 72.7768 50.6C72.7768 49.385 73.7642 48.4 74.9821 48.4C76.2001 48.4 77.1875 49.385 77.1875 50.6ZM77.1875 66.7333C77.1875 67.9484 76.2001 68.9333 74.9821 68.9333C73.7642 68.9333 72.7768 67.9484 72.7768 66.7333C72.7768 65.5183 73.7642 64.5333 74.9821 64.5333C76.2001 64.5333 77.1875 65.5183 77.1875 66.7333ZM77.1875 82.8667C77.1875 84.0817 76.2001 85.0667 74.9821 85.0667C73.7642 85.0667 72.7768 84.0817 72.7768 82.8667C72.7768 81.6516 73.7642 80.6667 74.9821 80.6667C76.2001 80.6667 77.1875 81.6516 77.1875 82.8667ZM77.1875 18.3333C77.1875 19.5484 76.2001 20.5333 74.9821 20.5333C73.7642 20.5333 72.7768 19.5484 72.7768 18.3333C72.7768 17.1183 73.7642 16.1333 74.9821 16.1333C76.2001 16.1333 77.1875 17.1183 77.1875 18.3333ZM77.1875 99C77.1875 100.215 76.2001 101.2 74.9821 101.2C73.7642 101.2 72.7768 100.215 72.7768 99C72.7768 97.785 73.7642 96.8 74.9821 96.8C76.2001 96.8 77.1875 97.785 77.1875 99ZM77.1875 115.133C77.1875 116.348 76.2001 117.333 74.9821 117.333C73.7642 117.333 72.7768 116.348 72.7768 115.133C72.7768 113.918 73.7642 112.933 74.9821 112.933C76.2001 112.933 77.1875 113.918 77.1875 115.133ZM77.1875 131.267C77.1875 132.482 76.2001 133.467 74.9821 133.467C73.7642 133.467 72.7768 132.482 72.7768 131.267C72.7768 130.052 73.7642 129.067 74.9821 129.067C76.2001 129.067 77.1875 130.052 77.1875 131.267ZM77.1875 147.4C77.1875 148.615 76.2001 149.6 74.9821 149.6C73.7642 149.6 72.7768 148.615 72.7768 147.4C72.7768 146.185 73.7642 145.2 74.9821 145.2C76.2001 145.2 77.1875 146.185 77.1875 147.4ZM77.1875 163.533C77.1875 164.748 76.2001 165.733 74.9821 165.733C73.7642 165.733 72.7768 164.748 72.7768 163.533C72.7768 162.318 73.7642 161.333 74.9821 161.333C76.2001 161.333 77.1875 162.318 77.1875 163.533ZM77.1875 179.667C77.1875 180.882 76.2001 181.867 74.9821 181.867C73.7642 181.867 72.7768 180.882 72.7768 179.667C72.7768 178.452 73.7642 177.467 74.9821 177.467C76.2001 177.467 77.1875 178.452 77.1875 179.667ZM77.1875 195.8C77.1875 197.015 76.2001 198 74.9821 198C73.7642 198 72.7768 197.015 72.7768 195.8C72.7768 194.585 73.7642 193.6 74.9821 193.6C76.2001 193.6 77.1875 194.585 77.1875 195.8ZM77.1875 211.933C77.1875 213.148 76.2001 214.133 74.9821 214.133C73.7642 214.133 72.7768 213.148 72.7768 211.933C72.7768 210.718 73.7642 209.733 74.9821 209.733C76.2001 209.733 77.1875 210.718 77.1875 211.933ZM93.3601 2.2C93.3601 3.41503 92.3727 4.4 91.1548 4.4C89.9368 4.4 88.9494 3.41503 88.9494 2.2C88.9494 0.984974 89.9368 0 91.1548 0C92.3727 0 93.3601 0.984974 93.3601 2.2ZM93.3601 18.3333C93.3601 19.5484 92.3727 20.5333 91.1548 20.5333C89.9368 20.5333 88.9494 19.5484 88.9494 18.3333C88.9494 17.1183 89.9368 16.1333 91.1548 16.1333C92.3727 16.1333 93.3601 17.1183 93.3601 18.3333ZM93.3601 34.4667C93.3601 35.6817 92.3727 36.6667 91.1548 36.6667C89.9368 36.6667 88.9494 35.6817 88.9494 34.4667C88.9494 33.2516 89.9368 32.2667 91.1548 32.2667C92.3727 32.2667 93.3601 33.2516 93.3601 34.4667ZM93.3601 50.6C93.3601 51.815 92.3727 52.8 91.1548 52.8C89.9368 52.8 88.9494 51.815 88.9494 50.6C88.9494 49.385 89.9368 48.4 91.1548 48.4C92.3727 48.4 93.3601 49.385 93.3601 50.6ZM93.3601 66.7333C93.3601 67.9484 92.3727 68.9333 91.1548 68.9333C89.9368 68.9333 88.9494 67.9484 88.9494 66.7333C88.9494 65.5183 89.9368 64.5333 91.1548 64.5333C92.3727 64.5333 93.3601 65.5183 93.3601 66.7333ZM93.3601 82.8667C93.3601 84.0817 92.3727 85.0667 91.1548 85.0667C89.9368 85.0667 88.9494 84.0817 88.9494 82.8667C88.9494 81.6516 89.9368 80.6667 91.1548 80.6667C92.3727 80.6667 93.3601 81.6516 93.3601 82.8667ZM93.3601 99C93.3601 100.215 92.3727 101.2 91.1548 101.2C89.9368 101.2 88.9494 100.215 88.9494 99C88.9494 97.785 89.9368 96.8 91.1548 96.8C92.3727 96.8 93.3601 97.785 93.3601 99ZM93.3601 115.133C93.3601 116.348 92.3727 117.333 91.1548 117.333C89.9368 117.333 88.9494 116.348 88.9494 115.133C88.9494 113.918 89.9368 112.933 91.1548 112.933C92.3727 112.933 93.3601 113.918 93.3601 115.133ZM93.3601 131.267C93.3601 132.482 92.3727 133.467 91.1548 133.467C89.9368 133.467 88.9494 132.482 88.9494 131.267C88.9494 130.052 89.9368 129.067 91.1548 129.067C92.3727 129.067 93.3601 130.052 93.3601 131.267ZM93.3601 147.4C93.3601 148.615 92.3727 149.6 91.1548 149.6C89.9368 149.6 88.9494 148.615 88.9494 147.4C88.9494 146.185 89.9368 145.2 91.1548 145.2C92.3727 145.2 93.3601 146.185 93.3601 147.4ZM93.3601 163.533C93.3601 164.748 92.3727 165.733 91.1548 165.733C89.9368 165.733 88.9494 164.748 88.9494 163.533C88.9494 162.318 89.9368 161.333 91.1548 161.333C92.3727 161.333 93.3601 162.318 93.3601 163.533ZM93.3601 179.667C93.3601 180.882 92.3727 181.867 91.1548 181.867C89.9368 181.867 88.9494 180.882 88.9494 179.667C88.9494 178.452 89.9368 177.467 91.1548 177.467C92.3727 177.467 93.3601 178.452 93.3601 179.667ZM93.3601 195.8C93.3601 197.015 92.3727 198 91.1548 198C89.9368 198 88.9494 197.015 88.9494 195.8C88.9494 194.585 89.9368 193.6 91.1548 193.6C92.3727 193.6 93.3601 194.585 93.3601 195.8ZM93.3601 211.933C93.3601 213.148 92.3727 214.133 91.1548 214.133C89.9368 214.133 88.9494 213.148 88.9494 211.933C88.9494 210.718 89.9368 209.733 91.1548 209.733C92.3727 209.733 93.3601 210.718 93.3601 211.933ZM109.533 2.2C109.533 3.41503 108.545 4.4 107.327 4.4C106.109 4.4 105.122 3.41503 105.122 2.2C105.122 0.984974 106.109 0 107.327 0C108.545 0 109.533 0.984974 109.533 2.2ZM109.533 18.3333C109.533 19.5484 108.545 20.5333 107.327 20.5333C106.109 20.5333 105.122 19.5484 105.122 18.3333C105.122 17.1183 106.109 16.1333 107.327 16.1333C108.545 16.1333 109.533 17.1183 109.533 18.3333ZM109.533 34.4667C109.533 35.6817 108.545 36.6667 107.327 36.6667C106.109 36.6667 105.122 35.6817 105.122 34.4667C105.122 33.2516 106.109 32.2667 107.327 32.2667C108.545 32.2667 109.533 33.2516 109.533 34.4667ZM109.533 50.6C109.533 51.815 108.545 52.8 107.327 52.8C106.109 52.8 105.122 51.815 105.122 50.6C105.122 49.385 106.109 48.4 107.327 48.4C108.545 48.4 109.533 49.385 109.533 50.6ZM109.533 66.7333C109.533 67.9484 108.545 68.9333 107.327 68.9333C106.109 68.9333 105.122 67.9484 105.122 66.7333C105.122 65.5183 106.109 64.5333 107.327 64.5333C108.545 64.5333 109.533 65.5183 109.533 66.7333ZM109.533 82.8667C109.533 84.0817 108.545 85.0667 107.327 85.0667C106.109 85.0667 105.122 84.0817 105.122 82.8667C105.122 81.6516 106.109 80.6667 107.327 80.6667C108.545 80.6667 109.533 81.6516 109.533 82.8667ZM109.533 99C109.533 100.215 108.545 101.2 107.327 101.2C106.109 101.2 105.122 100.215 105.122 99C105.122 97.785 106.109 96.8 107.327 96.8C108.545 96.8 109.533 97.785 109.533 99ZM109.533 115.133C109.533 116.348 108.545 117.333 107.327 117.333C106.109 117.333 105.122 116.348 105.122 115.133C105.122 113.918 106.109 112.933 107.327 112.933C108.545 112.933 109.533 113.918 109.533 115.133ZM109.533 131.267C109.533 132.482 108.545 133.467 107.327 133.467C106.109 133.467 105.122 132.482 105.122 131.267C105.122 130.052 106.109 129.067 107.327 129.067C108.545 129.067 109.533 130.052 109.533 131.267ZM109.533 147.4C109.533 148.615 108.545 149.6 107.327 149.6C106.109 149.6 105.122 148.615 105.122 147.4C105.122 146.185 106.109 145.2 107.327 145.2C108.545 145.2 109.533 146.185 109.533 147.4ZM109.533 163.533C109.533 164.748 108.545 165.733 107.327 165.733C106.109 165.733 105.122 164.748 105.122 163.533C105.122 162.318 106.109 161.333 107.327 161.333C108.545 161.333 109.533 162.318 109.533 163.533ZM109.533 179.667C109.533 180.882 108.545 181.867 107.327 181.867C106.109 181.867 105.122 180.882 105.122 179.667C105.122 178.452 106.109 177.467 107.327 177.467C108.545 177.467 109.533 178.452 109.533 179.667ZM109.533 195.8C109.533 197.015 108.545 198 107.327 198C106.109 198 105.122 197.015 105.122 195.8C105.122 194.585 106.109 193.6 107.327 193.6C108.545 193.6 109.533 194.585 109.533 195.8ZM109.533 211.933C109.533 213.148 108.545 214.133 107.327 214.133C106.109 214.133 105.122 213.148 105.122 211.933C105.122 210.718 106.109 209.733 107.327 209.733C108.545 209.733 109.533 210.718 109.533 211.933ZM125.705 2.2C125.705 3.41503 124.718 4.4 123.5 4.4C122.282 4.4 121.295 3.41503 121.295 2.2C121.295 0.984974 122.282 0 123.5 0C124.718 0 125.705 0.984974 125.705 2.2ZM125.705 18.3333C125.705 19.5484 124.718 20.5333 123.5 20.5333C122.282 20.5333 121.295 19.5484 121.295 18.3333C121.295 17.1183 122.282 16.1333 123.5 16.1333C124.718 16.1333 125.705 17.1183 125.705 18.3333ZM125.705 34.4667C125.705 35.6817 124.718 36.6667 123.5 36.6667C122.282 36.6667 121.295 35.6817 121.295 34.4667C121.295 33.2516 122.282 32.2667 123.5 32.2667C124.718 32.2667 125.705 33.2516 125.705 34.4667ZM125.705 50.6C125.705 51.815 124.718 52.8 123.5 52.8C122.282 52.8 121.295 51.815 121.295 50.6C121.295 49.385 122.282 48.4 123.5 48.4C124.718 48.4 125.705 49.385 125.705 50.6ZM125.705 66.7333C125.705 67.9484 124.718 68.9333 123.5 68.9333C122.282 68.9333 121.295 67.9484 121.295 66.7333C121.295 65.5183 122.282 64.5333 123.5 64.5333C124.718 64.5333 125.705 65.5183 125.705 66.7333ZM125.705 82.8667C125.705 84.0817 124.718 85.0667 123.5 85.0667C122.282 85.0667 121.295 84.0817 121.295 82.8667C121.295 81.6516 122.282 80.6667 123.5 80.6667C124.718 80.6667 125.705 81.6516 125.705 82.8667ZM125.705 99C125.705 100.215 124.718 101.2 123.5 101.2C122.282 101.2 121.295 100.215 121.295 99C121.295 97.785 122.282 96.8 123.5 96.8C124.718 96.8 125.705 97.785 125.705 99ZM125.705 115.133C125.705 116.348 124.718 117.333 123.5 117.333C122.282 117.333 121.295 116.348 121.295 115.133C121.295 113.918 122.282 112.933 123.5 112.933C124.718 112.933 125.705 113.918 125.705 115.133ZM125.705 131.267C125.705 132.482 124.718 133.467 123.5 133.467C122.282 133.467 121.295 132.482 121.295 131.267C121.295 130.052 122.282 129.067 123.5 129.067C124.718 129.067 125.705 130.052 125.705 131.267ZM125.705 147.4C125.705 148.615 124.718 149.6 123.5 149.6C122.282 149.6 121.295 148.615 121.295 147.4C121.295 146.185 122.282 145.2 123.5 145.2C124.718 145.2 125.705 146.185 125.705 147.4ZM125.705 163.533C125.705 164.748 124.718 165.733 123.5 165.733C122.282 165.733 121.295 164.748 121.295 163.533C121.295 162.318 122.282 161.333 123.5 161.333C124.718 161.333 125.705 162.318 125.705 163.533ZM125.705 179.667C125.705 180.882 124.718 181.867 123.5 181.867C122.282 181.867 121.295 180.882 121.295 179.667C121.295 178.452 122.282 177.467 123.5 177.467C124.718 177.467 125.705 178.452 125.705 179.667ZM125.705 195.8C125.705 197.015 124.718 198 123.5 198C122.282 198 121.295 197.015 121.295 195.8C121.295 194.585 122.282 193.6 123.5 193.6C124.718 193.6 125.705 194.585 125.705 195.8ZM125.705 211.933C125.705 213.148 124.718 214.133 123.5 214.133C122.282 214.133 121.295 213.148 121.295 211.933C121.295 210.718 122.282 209.733 123.5 209.733C124.718 209.733 125.705 210.718 125.705 211.933ZM141.878 2.2C141.878 3.41503 140.891 4.4 139.673 4.4C138.455 4.4 137.467 3.41503 137.467 2.2C137.467 0.984974 138.455 0 139.673 0C140.891 0 141.878 0.984974 141.878 2.2ZM141.878 18.3333C141.878 19.5484 140.891 20.5333 139.673 20.5333C138.455 20.5333 137.467 19.5484 137.467 18.3333C137.467 17.1183 138.455 16.1333 139.673 16.1333C140.891 16.1333 141.878 17.1183 141.878 18.3333ZM141.878 34.4667C141.878 35.6817 140.891 36.6667 139.673 36.6667C138.455 36.6667 137.467 35.6817 137.467 34.4667C137.467 33.2516 138.455 32.2667 139.673 32.2667C140.891 32.2667 141.878 33.2516 141.878 34.4667ZM141.878 50.6C141.878 51.815 140.891 52.8 139.673 52.8C138.455 52.8 137.467 51.815 137.467 50.6C137.467 49.385 138.455 48.4 139.673 48.4C140.891 48.4 141.878 49.385 141.878 50.6ZM141.878 66.7333C141.878 67.9484 140.891 68.9333 139.673 68.9333C138.455 68.9333 137.467 67.9484 137.467 66.7333C137.467 65.5183 138.455 64.5333 139.673 64.5333C140.891 64.5333 141.878 65.5183 141.878 66.7333ZM141.878 82.8667C141.878 84.0817 140.891 85.0667 139.673 85.0667C138.455 85.0667 137.467 84.0817 137.467 82.8667C137.467 81.6516 138.455 80.6667 139.673 80.6667C140.891 80.6667 141.878 81.6516 141.878 82.8667ZM141.878 99C141.878 100.215 140.891 101.2 139.673 101.2C138.455 101.2 137.467 100.215 137.467 99C137.467 97.785 138.455 96.8 139.673 96.8C140.891 96.8 141.878 97.785 141.878 99ZM141.878 115.133C141.878 116.348 140.891 117.333 139.673 117.333C138.455 117.333 137.467 116.348 137.467 115.133C137.467 113.918 138.455 112.933 139.673 112.933C140.891 112.933 141.878 113.918 141.878 115.133ZM141.878 131.267C141.878 132.482 140.891 133.467 139.673 133.467C138.455 133.467 137.467 132.482 137.467 131.267C137.467 130.052 138.455 129.067 139.673 129.067C140.891 129.067 141.878 130.052 141.878 131.267ZM141.878 147.4C141.878 148.615 140.891 149.6 139.673 149.6C138.455 149.6 137.467 148.615 137.467 147.4C137.467 146.185 138.455 145.2 139.673 145.2C140.891 145.2 141.878 146.185 141.878 147.4ZM141.878 163.533C141.878 164.748 140.891 165.733 139.673 165.733C138.455 165.733 137.467 164.748 137.467 163.533C137.467 162.318 138.455 161.333 139.673 161.333C140.891 161.333 141.878 162.318 141.878 163.533ZM141.878 179.667C141.878 180.882 140.891 181.867 139.673 181.867C138.455 181.867 137.467 180.882 137.467 179.667C137.467 178.452 138.455 177.467 139.673 177.467C140.891 177.467 141.878 178.452 141.878 179.667ZM141.878 195.8C141.878 197.015 140.891 198 139.673 198C138.455 198 137.467 197.015 137.467 195.8C137.467 194.585 138.455 193.6 139.673 193.6C140.891 193.6 141.878 194.585 141.878 195.8ZM141.878 211.933C141.878 213.148 140.891 214.133 139.673 214.133C138.455 214.133 137.467 213.148 137.467 211.933C137.467 210.718 138.455 209.733 139.673 209.733C140.891 209.733 141.878 210.718 141.878 211.933ZM158.051 2.2C158.051 3.41503 157.063 4.4 155.845 4.4C154.627 4.4 153.64 3.41503 153.64 2.2C153.64 0.984974 154.627 0 155.845 0C157.063 0 158.051 0.984974 158.051 2.2ZM158.051 18.3333C158.051 19.5484 157.063 20.5333 155.845 20.5333C154.627 20.5333 153.64 19.5484 153.64 18.3333C153.64 17.1183 154.627 16.1333 155.845 16.1333C157.063 16.1333 158.051 17.1183 158.051 18.3333ZM158.051 34.4667C158.051 35.6817 157.063 36.6667 155.845 36.6667C154.627 36.6667 153.64 35.6817 153.64 34.4667C153.64 33.2516 154.627 32.2667 155.845 32.2667C157.063 32.2667 158.051 33.2516 158.051 34.4667ZM158.051 50.6C158.051 51.815 157.063 52.8 155.845 52.8C154.627 52.8 153.64 51.815 153.64 50.6C153.64 49.385 154.627 48.4 155.845 48.4C157.063 48.4 158.051 49.385 158.051 50.6ZM158.051 66.7333C158.051 67.9484 157.063 68.9333 155.845 68.9333C154.627 68.9333 153.64 67.9484 153.64 66.7333C153.64 65.5183 154.627 64.5333 155.845 64.5333C157.063 64.5333 158.051 65.5183 158.051 66.7333ZM158.051 82.8667C158.051 84.0817 157.063 85.0667 155.845 85.0667C154.627 85.0667 153.64 84.0817 153.64 82.8667C153.64 81.6516 154.627 80.6667 155.845 80.6667C157.063 80.6667 158.051 81.6516 158.051 82.8667ZM158.051 99C158.051 100.215 157.063 101.2 155.845 101.2C154.627 101.2 153.64 100.215 153.64 99C153.64 97.785 154.627 96.8 155.845 96.8C157.063 96.8 158.051 97.785 158.051 99ZM158.051 115.133C158.051 116.348 157.063 117.333 155.845 117.333C154.627 117.333 153.64 116.348 153.64 115.133C153.64 113.918 154.627 112.933 155.845 112.933C157.063 112.933 158.051 113.918 158.051 115.133ZM158.051 131.267C158.051 132.482 157.063 133.467 155.845 133.467C154.627 133.467 153.64 132.482 153.64 131.267C153.64 130.052 154.627 129.067 155.845 129.067C157.063 129.067 158.051 130.052 158.051 131.267ZM158.051 147.4C158.051 148.615 157.063 149.6 155.845 149.6C154.627 149.6 153.64 148.615 153.64 147.4C153.64 146.185 154.627 145.2 155.845 145.2C157.063 145.2 158.051 146.185 158.051 147.4ZM158.051 163.533C158.051 164.748 157.063 165.733 155.845 165.733C154.627 165.733 153.64 164.748 153.64 163.533C153.64 162.318 154.627 161.333 155.845 161.333C157.063 161.333 158.051 162.318 158.051 163.533ZM158.051 179.667C158.051 180.882 157.063 181.867 155.845 181.867C154.627 181.867 153.64 180.882 153.64 179.667C153.64 178.452 154.627 177.467 155.845 177.467C157.063 177.467 158.051 178.452 158.051 179.667ZM158.051 195.8C158.051 197.015 157.063 198 155.845 198C154.627 198 153.64 197.015 153.64 195.8C153.64 194.585 154.627 193.6 155.845 193.6C157.063 193.6 158.051 194.585 158.051 195.8ZM158.051 211.933C158.051 213.148 157.063 214.133 155.845 214.133C154.627 214.133 153.64 213.148 153.64 211.933C153.64 210.718 154.627 209.733 155.845 209.733C157.063 209.733 158.051 210.718 158.051 211.933Z" fill="var(--fill-0, #F6F6F6)"/>
</svg>
