<svg width="24" height="24" viewBox="0 0 24 24" fill="none" xmlns="http://www.w3.org/2000/svg">
<path d="M5.8125 18.3769V5.62308C5.8125 3.0353 7.90519 0.9375 10.4867 0.9375H7.64062C5.05177 0.9375 2.95312 3.03614 2.95312 5.625V18.375C2.95312 20.9638 5.05177 23.0625 7.64062 23.0625H10.4867C7.90519 23.0625 5.8125 20.9647 5.8125 18.3769Z" fill="#E3E3FD"/>
<path d="M16.3125 24H7.6875C4.58588 24 2.0625 21.4766 2.0625 18.375V5.625C2.0625 2.52338 4.58588 0 7.6875 0H16.3125C19.4141 0 21.9375 2.52338 21.9375 5.625V18.375C21.9375 21.4766 19.4141 24 16.3125 24ZM7.6875 1.875C5.61975 1.875 3.9375 3.55725 3.9375 5.625V18.375C3.9375 20.4427 5.61975 22.125 7.6875 22.125H16.3125C18.3802 22.125 20.0625 20.4427 20.0625 18.375V5.625C20.0625 3.55725 18.3802 1.875 16.3125 1.875H7.6875ZM17.0625 4.59375C17.0625 4.07597 16.6428 3.65625 16.125 3.65625C15.6072 3.65625 15.1875 4.07597 15.1875 4.59375C15.1875 5.36916 14.5567 6 13.7812 6H10.2188C9.44334 6 8.8125 5.36916 8.8125 4.59375C8.8125 4.07597 8.39278 3.65625 7.875 3.65625C7.35722 3.65625 6.9375 4.07597 6.9375 4.59375C6.9375 6.40303 8.40947 7.875 10.2188 7.875H13.7812C15.5905 7.875 17.0625 6.40303 17.0625 4.59375Z" fill="#000091"/>
<path d="M16.3595 18.5156H8.43758C7.9198 18.5156 7.50008 18.0959 7.50008 17.5781C7.50008 17.0604 7.9198 16.6406 8.43758 16.6406H16.3595C16.8772 16.6406 17.297 17.0604 17.297 17.5781C17.297 18.0959 16.8772 18.5156 16.3595 18.5156ZM17.297 13.9688C17.297 13.451 16.8772 13.0313 16.3595 13.0313H14.5313C14.0135 13.0313 13.5938 13.451 13.5938 13.9688C13.5938 14.4865 14.0135 14.9063 14.5313 14.9063H16.3595C16.8772 14.9063 17.297 14.4865 17.297 13.9688ZM11.0532 14.3448L12.8533 12.5292C13.2178 12.1615 13.2153 11.5679 12.8476 11.2034C12.4799 10.8389 11.8864 10.8414 11.5218 11.2091L9.72163 13.0248C9.71305 13.0334 9.70241 13.0333 9.69388 13.0248L8.822 12.1453C8.45745 11.7776 7.86388 11.7751 7.49619 12.1396C7.1285 12.5042 7.12597 13.0977 7.49047 13.4654L8.36234 14.3448C8.72127 14.7069 9.19906 14.9063 9.70775 14.9063C10.2165 14.9063 10.6943 14.7069 11.0532 14.3448Z" fill="#0063CB"/>
</svg>
