<svg width="24" height="24" viewBox="0 0 24 24" fill="none" xmlns="http://www.w3.org/2000/svg">
<g clip-path="url(#clip0_2958_161667)">
<path d="M11.2617 11.4566C10.7376 11.6265 10.1784 11.7188 9.59766 11.7188C6.62048 11.7188 4.20703 9.3053 4.20703 6.32812C4.20703 3.35095 6.62048 0.9375 9.59766 0.9375C10.1784 0.9375 10.7376 1.02975 11.2617 1.19967C9.099 1.90097 7.53516 3.93173 7.53516 6.32812C7.53516 8.72452 9.099 10.7553 11.2617 11.4566ZM16.0552 20.25V18.9844C16.0552 17.4311 17.3144 16.1719 18.8677 16.1719H16.0552C14.5019 16.1719 13.2427 17.4311 13.2427 18.9844V20.25C13.2427 21.8033 14.5019 23.0625 16.0552 23.0625H18.8677C17.3144 23.0625 16.0552 21.8033 16.0552 20.25Z" fill="#E3E3FD"/>
<path d="M20.5078 15.4388V14.2031C20.5078 12.6523 19.2461 11.3906 17.6953 11.3906C16.1445 11.3906 14.8828 12.6523 14.8828 14.2031V15.4229C13.3874 15.9162 12.3047 17.3258 12.3047 18.9844V20.25C12.3047 22.3177 13.9869 24 16.0547 24H19.2891C21.3568 24 23.0391 22.3177 23.0391 20.25V18.9844C23.0391 17.3432 21.9789 15.9459 20.5078 15.4388ZM16.7578 14.2031C16.7578 13.6862 17.1784 13.2656 17.6953 13.2656C18.2122 13.2656 18.6328 13.6862 18.6328 14.2031V15.2344H16.7578V14.2031ZM21.1641 20.25C21.1641 21.2839 20.3229 22.125 19.2891 22.125H16.0547C15.0208 22.125 14.1797 21.2839 14.1797 20.25V18.9844C14.1797 17.9505 15.0208 17.1094 16.0547 17.1094H19.2891C20.3229 17.1094 21.1641 17.9505 21.1641 18.9844V20.25ZM16.4297 6.32812C16.4297 2.8388 13.5909 0 10.1016 0C6.61223 0 3.77344 2.8388 3.77344 6.32812C3.77344 9.81745 6.61223 12.6562 10.1016 12.6562C13.5909 12.6562 16.4297 9.81745 16.4297 6.32812ZM10.1016 10.7812C7.64611 10.7812 5.64844 8.78358 5.64844 6.32812C5.64844 3.87267 7.64611 1.875 10.1016 1.875C12.557 1.875 14.5547 3.87267 14.5547 6.32812C14.5547 8.78358 12.557 10.7812 10.1016 10.7812Z" fill="#000091"/>
<path d="M1.89844 24C1.38066 24 0.960938 23.5803 0.960938 23.0625C0.960938 18.3584 4.78805 14.5312 9.49219 14.5312H10.4297C10.9475 14.5312 11.3672 14.951 11.3672 15.4688C11.3672 15.9865 10.9475 16.4062 10.4297 16.4062H9.49219C5.82192 16.4062 2.83594 19.3922 2.83594 23.0625C2.83594 23.5803 2.41622 24 1.89844 24ZM17.664 18.4688C17.0168 18.4688 16.4922 18.9934 16.4922 19.6406C16.4922 20.2878 17.0168 20.8125 17.664 20.8125C18.3113 20.8125 18.8359 20.2878 18.8359 19.6406C18.8359 18.9934 18.3113 18.4688 17.664 18.4688Z" fill="#0063CB"/>
</g>
<defs>
<clipPath id="clip0_2958_161667">
<rect width="24" height="24" fill="white"/>
</clipPath>
</defs>
</svg>
