<svg width="24" height="24" viewBox="0 0 24 24" fill="none" xmlns="http://www.w3.org/2000/svg">
<g clip-path="url(#clip0_2958_161727)">
<path d="M3.84375 13.9707V6.27933C3.84375 3.69155 5.93644 1.59375 8.51794 1.59375H5.67188C3.08302 1.59375 0.984375 3.69239 0.984375 6.28125V13.9688C0.984375 16.5576 3.08302 18.6562 5.67188 18.6562H8.51794C5.93644 18.6562 3.84375 16.5585 3.84375 13.9707Z" fill="#E3E3FD"/>
<path d="M18.375 19.5938H5.62402C2.52291 19.5938 0 17.0708 0 13.9697V6.28125C0 3.17963 2.52338 0.65625 5.625 0.65625H18.375C21.4766 0.65625 24 3.17963 24 6.28125V13.9688C24 17.0704 21.4766 19.5938 18.375 19.5938ZM5.625 2.53125C3.55725 2.53125 1.875 4.2135 1.875 6.28125V13.9697C1.875 16.0369 3.55683 17.7188 5.62402 17.7188H18.375C20.4427 17.7188 22.125 16.0365 22.125 13.9688V6.28125C22.125 4.2135 20.4427 2.53125 18.375 2.53125H5.625ZM17.4375 22.4062C17.4375 21.8885 17.0178 21.4688 16.5 21.4688H7.5C6.98222 21.4688 6.5625 21.8885 6.5625 22.4062C6.5625 22.924 6.98222 23.3438 7.5 23.3438H16.5C17.0178 23.3438 17.4375 22.924 17.4375 22.4062Z" fill="#000091"/>
<path d="M16.5137 11.8523L15.8892 11.4776C16.0116 11.0952 16.0783 10.6881 16.0783 10.2656C16.0783 9.84314 16.0116 9.43603 15.8892 9.05363L16.5137 8.67891C16.9577 8.41252 17.1017 7.83666 16.8353 7.39266C16.5688 6.94866 15.9929 6.80475 15.5491 7.07109L14.913 7.45275C14.4032 6.94177 13.7554 6.56902 13.0314 6.3937V5.57812C13.0314 5.06034 12.6117 4.64062 12.0939 4.64062C11.5761 4.64062 11.1564 5.06034 11.1564 5.57812V6.3937C10.4159 6.57305 9.75573 6.95953 9.24072 7.48852L8.545 7.07109C8.10114 6.80475 7.52518 6.94866 7.25879 7.39266C6.99236 7.83666 7.13636 8.41252 7.58031 8.67891L8.28362 9.10087C8.1707 9.4695 8.10953 9.86053 8.10953 10.2656C8.10953 10.6707 8.1707 11.0618 8.28362 11.4304L7.58031 11.8523C7.13631 12.1187 6.99236 12.6946 7.25875 13.1385C7.43457 13.4315 7.74507 13.5938 8.06354 13.5938C8.2277 13.5938 8.39401 13.5507 8.545 13.4601L9.24072 13.0427C9.75573 13.5717 10.4159 13.9582 11.1564 14.1375V14.9531C11.1564 15.4709 11.5761 15.8906 12.0939 15.8906C12.6117 15.8906 13.0314 15.4709 13.0314 14.9531V14.1375C13.7554 13.9622 14.4032 13.5895 14.913 13.0785L15.5491 13.4602C15.7001 13.5508 15.8664 13.5939 16.0305 13.5939C16.349 13.5939 16.6595 13.4316 16.8353 13.1386C17.1017 12.6946 16.9577 12.1187 16.5137 11.8523ZM12.0939 12.375C10.9308 12.375 9.98453 11.4287 9.98453 10.2656C9.98453 9.10252 10.9308 8.15625 12.0939 8.15625C13.257 8.15625 14.2033 9.10252 14.2033 10.2656C14.2033 11.4287 13.257 12.375 12.0939 12.375Z" fill="#0063CB"/>
</g>
<defs>
<clipPath id="clip0_2958_161727">
<rect width="24" height="24" fill="white"/>
</clipPath>
</defs>
</svg>
