<svg width="485" height="549" viewBox="0 0 485 549" fill="none" xmlns="http://www.w3.org/2000/svg">
<g clip-path="url(#clip0_11272_80015)">
<path fill-rule="evenodd" clip-rule="evenodd" d="M62.2675 541.428C64.3623 541.428 66.0604 543.123 66.0604 545.214C66.0604 547.305 64.3623 549 62.2675 549C60.1727 549 58.4746 547.305 58.4746 545.214C58.4746 543.123 60.1727 541.428 62.2675 541.428ZM90.0821 541.428C92.1769 541.428 93.875 543.123 93.875 545.214C93.875 547.305 92.1769 549 90.0821 549C87.9874 549 86.2892 547.305 86.2892 545.214C86.2892 543.123 87.9874 541.428 90.0821 541.428ZM117.897 541.428C119.992 541.428 121.69 543.123 121.69 545.214C121.69 547.305 119.992 549 117.897 549C115.802 549 114.104 547.305 114.104 545.214C114.104 543.123 115.802 541.428 117.897 541.428ZM145.711 541.428C147.806 541.428 149.504 543.123 149.504 545.214C149.504 547.305 147.806 549 145.711 549C143.617 549 141.918 547.305 141.918 545.214C141.918 543.123 143.617 541.428 145.711 541.428ZM173.526 541.428C175.621 541.428 177.319 543.123 177.319 545.214C177.319 547.305 175.621 549 173.526 549C171.431 549 169.733 547.305 169.733 545.214C169.733 543.123 171.431 541.428 173.526 541.428ZM201.341 541.428C203.435 541.428 205.133 543.123 205.133 545.214C205.133 547.305 203.435 549 201.341 549C199.246 549 197.548 547.305 197.548 545.214C197.548 543.123 199.246 541.428 201.341 541.428ZM229.155 541.428C231.25 541.428 232.948 543.123 232.948 545.214C232.948 547.305 231.25 549 229.155 549C227.06 549 225.362 547.305 225.362 545.214C225.362 543.123 227.06 541.428 229.155 541.428ZM256.97 541.428C259.065 541.428 260.763 543.123 260.763 545.214C260.763 547.305 259.065 549 256.97 549C254.875 549 253.177 547.305 253.177 545.214C253.177 543.123 254.875 541.428 256.97 541.428ZM284.784 541.428C286.879 541.428 288.577 543.123 288.577 545.214C288.577 547.305 286.879 549 284.784 549C282.69 549 280.992 547.305 280.992 545.214C280.992 543.123 282.69 541.428 284.784 541.428ZM312.599 541.269C314.694 541.269 316.392 542.964 316.392 545.055C316.392 547.146 314.694 548.841 312.599 548.841C310.504 548.841 308.806 547.146 308.806 545.055C308.806 542.964 310.504 541.269 312.599 541.269ZM340.414 541.269C342.508 541.269 344.207 542.964 344.207 545.055C344.207 547.146 342.508 548.841 340.414 548.841C338.319 548.841 336.621 547.146 336.621 545.055C336.621 542.964 338.319 541.269 340.414 541.269ZM368.228 541.269C370.323 541.269 372.021 542.964 372.021 545.055C372.021 547.146 370.323 548.841 368.228 548.841C366.134 548.841 364.435 547.146 364.435 545.055C364.435 542.964 366.134 541.269 368.228 541.269ZM396.043 541.269C398.138 541.269 399.836 542.964 399.836 545.055C399.836 547.146 398.138 548.841 396.043 548.841C393.948 548.841 392.25 547.146 392.25 545.055C392.25 542.964 393.948 541.269 396.043 541.269ZM423.857 541.269C425.952 541.269 427.65 542.964 427.65 545.055C427.65 547.146 425.952 548.841 423.857 548.841C421.763 548.841 420.065 547.146 420.065 545.055C420.065 542.964 421.763 541.269 423.857 541.269ZM451.672 541.269C453.767 541.269 455.465 542.964 455.465 545.055C455.465 547.146 453.767 548.841 451.672 548.841C449.577 548.841 447.879 547.146 447.879 545.055C447.879 542.964 449.577 541.269 451.672 541.269ZM479.487 541.269C481.581 541.269 483.28 542.964 483.28 545.055C483.28 547.146 481.581 548.841 479.487 548.841C477.392 548.841 475.694 547.146 475.694 545.055C475.694 542.964 477.392 541.269 479.487 541.269ZM284.784 513.662C286.879 513.662 288.577 515.357 288.577 517.448C288.577 519.539 286.879 521.234 284.784 521.234C282.69 521.234 280.992 519.539 280.992 517.448C280.992 515.357 282.69 513.662 284.784 513.662ZM312.599 513.503C314.694 513.503 316.392 515.198 316.392 517.289C316.392 519.381 314.694 521.076 312.599 521.076C310.504 521.076 308.806 519.381 308.806 517.289C308.806 515.198 310.504 513.503 312.599 513.503ZM340.414 513.503C342.508 513.503 344.207 515.198 344.207 517.289C344.207 519.381 342.508 521.076 340.414 521.076C338.319 521.076 336.621 519.381 336.621 517.289C336.621 515.198 338.319 513.503 340.414 513.503ZM368.228 513.503C370.323 513.503 372.021 515.198 372.021 517.289C372.021 519.381 370.323 521.076 368.228 521.076C366.134 521.076 364.435 519.381 364.435 517.289C364.435 515.198 366.134 513.503 368.228 513.503ZM62.2675 513.662C64.3623 513.662 66.0604 515.357 66.0604 517.448C66.0604 519.539 64.3623 521.234 62.2675 521.234C60.1727 521.234 58.4746 519.539 58.4746 517.448C58.4746 515.357 60.1727 513.662 62.2675 513.662ZM117.897 513.662C119.992 513.662 121.69 515.357 121.69 517.448C121.69 519.539 119.992 521.234 117.897 521.234C115.802 521.234 114.104 519.539 114.104 517.448C114.104 515.357 115.802 513.662 117.897 513.662ZM173.526 513.662C175.621 513.662 177.319 515.357 177.319 517.448C177.319 519.539 175.621 521.234 173.526 521.234C171.431 521.234 169.733 519.539 169.733 517.448C169.733 515.357 171.431 513.662 173.526 513.662ZM229.155 513.662C231.25 513.662 232.948 515.357 232.948 517.448C232.948 519.539 231.25 521.234 229.155 521.234C227.06 521.234 225.362 519.539 225.362 517.448C225.362 515.357 227.06 513.662 229.155 513.662ZM256.97 513.662C259.065 513.662 260.763 515.357 260.763 517.448C260.763 519.539 259.065 521.234 256.97 521.234C254.875 521.234 253.177 519.539 253.177 517.448C253.177 515.357 254.875 513.662 256.97 513.662ZM423.857 513.503C425.952 513.503 427.65 515.198 427.65 517.289C427.65 519.381 425.952 521.076 423.857 521.076C421.763 521.076 420.065 519.381 420.065 517.289C420.065 515.198 421.763 513.503 423.857 513.503ZM90.0821 513.662C92.1769 513.662 93.875 515.357 93.875 517.448C93.875 519.539 92.1769 521.234 90.0821 521.234C87.9874 521.234 86.2892 519.539 86.2892 517.448C86.2892 515.357 87.9874 513.662 90.0821 513.662ZM451.672 513.503C453.767 513.503 455.465 515.198 455.465 517.289C455.465 519.381 453.767 521.076 451.672 521.076C449.577 521.076 447.879 519.381 447.879 517.289C447.879 515.198 449.577 513.503 451.672 513.503ZM145.711 513.662C147.806 513.662 149.504 515.357 149.504 517.448C149.504 519.539 147.806 521.234 145.711 521.234C143.617 521.234 141.918 519.539 141.918 517.448C141.918 515.357 143.617 513.662 145.711 513.662ZM479.487 513.503C481.581 513.503 483.28 515.198 483.28 517.289C483.28 519.381 481.581 521.076 479.487 521.076C477.392 521.076 475.694 519.381 475.694 517.289C475.694 515.198 477.392 513.503 479.487 513.503ZM201.341 513.662C203.435 513.662 205.133 515.357 205.133 517.448C205.133 519.539 203.435 521.234 201.341 521.234C199.246 521.234 197.548 519.539 197.548 517.448C197.548 515.357 199.246 513.662 201.341 513.662ZM396.043 513.503C398.138 513.503 399.836 515.198 399.836 517.289C399.836 519.381 398.138 521.076 396.043 521.076C393.948 521.076 392.25 519.381 392.25 517.289C392.25 515.198 393.948 513.503 396.043 513.503ZM117.897 485.897C119.992 485.897 121.69 487.592 121.69 489.683C121.69 491.774 119.992 493.469 117.897 493.469C115.802 493.469 114.104 491.774 114.104 489.683C114.104 487.592 115.802 485.897 117.897 485.897ZM173.526 485.897C175.621 485.897 177.319 487.592 177.319 489.683C177.319 491.774 175.621 493.469 173.526 493.469C171.431 493.469 169.733 491.774 169.733 489.683C169.733 487.592 171.431 485.897 173.526 485.897ZM201.341 485.897C203.435 485.897 205.133 487.592 205.133 489.683C205.133 491.774 203.435 493.469 201.341 493.469C199.246 493.469 197.548 491.774 197.548 489.683C197.548 487.592 199.246 485.897 201.341 485.897ZM229.155 485.897C231.25 485.897 232.948 487.592 232.948 489.683C232.948 491.774 231.25 493.469 229.155 493.469C227.06 493.469 225.362 491.774 225.362 489.683C225.362 487.592 227.06 485.897 229.155 485.897ZM256.97 485.897C259.065 485.897 260.763 487.592 260.763 489.683C260.763 491.774 259.065 493.469 256.97 493.469C254.875 493.469 253.177 491.774 253.177 489.683C253.177 487.592 254.875 485.897 256.97 485.897ZM62.2675 485.897C64.3623 485.897 66.0604 487.592 66.0604 489.683C66.0604 491.774 64.3623 493.469 62.2675 493.469C60.1727 493.469 58.4746 491.774 58.4746 489.683C58.4746 487.592 60.1727 485.897 62.2675 485.897ZM90.0821 485.897C92.1769 485.897 93.875 487.592 93.875 489.683C93.875 491.774 92.1769 493.469 90.0821 493.469C87.9874 493.469 86.2892 491.774 86.2892 489.683C86.2892 487.592 87.9874 485.897 90.0821 485.897ZM145.711 485.897C147.806 485.897 149.504 487.592 149.504 489.683C149.504 491.774 147.806 493.469 145.711 493.469C143.617 493.469 141.918 491.774 141.918 489.683C141.918 487.592 143.617 485.897 145.711 485.897ZM284.784 485.897C286.879 485.897 288.577 487.592 288.577 489.683C288.577 491.774 286.879 493.469 284.784 493.469C282.69 493.469 280.992 491.774 280.992 489.683C280.992 487.592 282.69 485.897 284.784 485.897ZM312.599 485.738C314.694 485.738 316.392 487.433 316.392 489.524C316.392 491.615 314.694 493.31 312.599 493.31C310.504 493.31 308.806 491.615 308.806 489.524C308.806 487.433 310.504 485.738 312.599 485.738ZM340.414 485.738C342.508 485.738 344.207 487.433 344.207 489.524C344.207 491.615 342.508 493.31 340.414 493.31C338.319 493.31 336.621 491.615 336.621 489.524C336.621 487.433 338.319 485.738 340.414 485.738ZM368.228 485.738C370.323 485.738 372.021 487.433 372.021 489.524C372.021 491.615 370.323 493.31 368.228 493.31C366.134 493.31 364.435 491.615 364.435 489.524C364.435 487.433 366.134 485.738 368.228 485.738ZM396.043 485.738C398.138 485.738 399.836 487.433 399.836 489.524C399.836 491.615 398.138 493.31 396.043 493.31C393.948 493.31 392.25 491.615 392.25 489.524C392.25 487.433 393.948 485.738 396.043 485.738ZM423.857 485.738C425.952 485.738 427.65 487.433 427.65 489.524C427.65 491.615 425.952 493.31 423.857 493.31C421.763 493.31 420.065 491.615 420.065 489.524C420.065 487.433 421.763 485.738 423.857 485.738ZM451.672 485.738C453.767 485.738 455.465 487.433 455.465 489.524C455.465 491.615 453.767 493.31 451.672 493.31C449.577 493.31 447.879 491.615 447.879 489.524C447.879 487.433 449.577 485.738 451.672 485.738ZM479.487 485.738C481.581 485.738 483.28 487.433 483.28 489.524C483.28 491.615 481.581 493.31 479.487 493.31C477.392 493.31 475.694 491.615 475.694 489.524C475.694 487.433 477.392 485.738 479.487 485.738ZM62.2675 458.131C64.3623 458.131 66.0604 459.826 66.0604 461.917C66.0604 464.008 64.3623 465.703 62.2675 465.703C60.1727 465.703 58.4746 464.008 58.4746 461.917C58.4746 459.826 60.1727 458.131 62.2675 458.131ZM90.0821 458.131C92.1769 458.131 93.875 459.826 93.875 461.917C93.875 464.008 92.1769 465.703 90.0821 465.703C87.9874 465.703 86.2892 464.008 86.2892 461.917C86.2892 459.826 87.9874 458.131 90.0821 458.131ZM117.897 458.131C119.992 458.131 121.69 459.826 121.69 461.917C121.69 464.008 119.992 465.703 117.897 465.703C115.802 465.703 114.104 464.008 114.104 461.917C114.104 459.826 115.802 458.131 117.897 458.131ZM145.711 458.131C147.806 458.131 149.504 459.826 149.504 461.917C149.504 464.008 147.806 465.703 145.711 465.703C143.617 465.703 141.918 464.008 141.918 461.917C141.918 459.826 143.617 458.131 145.711 458.131ZM173.526 458.131C175.621 458.131 177.319 459.826 177.319 461.917C177.319 464.008 175.621 465.703 173.526 465.703C171.431 465.703 169.733 464.008 169.733 461.917C169.733 459.826 171.431 458.131 173.526 458.131ZM201.341 458.131C203.435 458.131 205.133 459.826 205.133 461.917C205.133 464.008 203.435 465.703 201.341 465.703C199.246 465.703 197.548 464.008 197.548 461.917C197.548 459.826 199.246 458.131 201.341 458.131ZM229.155 458.131C231.25 458.131 232.948 459.826 232.948 461.917C232.948 464.008 231.25 465.703 229.155 465.703C227.06 465.703 225.362 464.008 225.362 461.917C225.362 459.826 227.06 458.131 229.155 458.131ZM256.97 458.131C259.065 458.131 260.763 459.826 260.763 461.917C260.763 464.008 259.065 465.703 256.97 465.703C254.875 465.703 253.177 464.008 253.177 461.917C253.177 459.826 254.875 458.131 256.97 458.131ZM284.784 458.131C286.879 458.131 288.577 459.826 288.577 461.917C288.577 464.008 286.879 465.703 284.784 465.703C282.69 465.703 280.992 464.008 280.992 461.917C280.992 459.826 282.69 458.131 284.784 458.131ZM312.599 457.972C314.694 457.972 316.392 459.667 316.392 461.758C316.392 463.85 314.694 465.545 312.599 465.545C310.504 465.545 308.806 463.85 308.806 461.758C308.806 459.667 310.504 457.972 312.599 457.972ZM340.414 457.972C342.508 457.972 344.207 459.667 344.207 461.758C344.207 463.85 342.508 465.545 340.414 465.545C338.319 465.545 336.621 463.85 336.621 461.758C336.621 459.667 338.319 457.972 340.414 457.972ZM368.228 457.972C370.323 457.972 372.021 459.667 372.021 461.758C372.021 463.85 370.323 465.545 368.228 465.545C366.134 465.545 364.435 463.85 364.435 461.758C364.435 459.667 366.134 457.972 368.228 457.972ZM396.043 457.972C398.138 457.972 399.836 459.667 399.836 461.758C399.836 463.85 398.138 465.545 396.043 465.545C393.948 465.545 392.25 463.85 392.25 461.758C392.25 459.667 393.948 457.972 396.043 457.972ZM423.857 457.972C425.952 457.972 427.65 459.667 427.65 461.758C427.65 463.85 425.952 465.545 423.857 465.545C421.763 465.545 420.065 463.85 420.065 461.758C420.065 459.667 421.763 457.972 423.857 457.972ZM451.672 457.972C453.767 457.972 455.465 459.667 455.465 461.758C455.465 463.85 453.767 465.545 451.672 465.545C449.577 465.545 447.879 463.85 447.879 461.758C447.879 459.667 449.577 457.972 451.672 457.972ZM479.487 457.972C481.581 457.972 483.28 459.667 483.28 461.758C483.28 463.85 481.581 465.545 479.487 465.545C477.392 465.545 475.694 463.85 475.694 461.758C475.694 459.667 477.392 457.972 479.487 457.972ZM62.2675 430.366C64.3623 430.366 66.0604 432.061 66.0604 434.152C66.0604 436.243 64.3623 437.938 62.2675 437.938C60.1727 437.938 58.4746 436.243 58.4746 434.152C58.4746 432.061 60.1727 430.366 62.2675 430.366ZM90.0821 430.366C92.1769 430.366 93.875 432.061 93.875 434.152C93.875 436.243 92.1769 437.938 90.0821 437.938C87.9874 437.938 86.2892 436.243 86.2892 434.152C86.2892 432.061 87.9874 430.366 90.0821 430.366ZM117.897 430.366C119.992 430.366 121.69 432.061 121.69 434.152C121.69 436.243 119.992 437.938 117.897 437.938C115.802 437.938 114.104 436.243 114.104 434.152C114.104 432.061 115.802 430.366 117.897 430.366ZM145.711 430.366C147.806 430.366 149.504 432.061 149.504 434.152C149.504 436.243 147.806 437.938 145.711 437.938C143.617 437.938 141.918 436.243 141.918 434.152C141.918 432.061 143.617 430.366 145.711 430.366ZM173.526 430.366C175.621 430.366 177.319 432.061 177.319 434.152C177.319 436.243 175.621 437.938 173.526 437.938C171.431 437.938 169.733 436.243 169.733 434.152C169.733 432.061 171.431 430.366 173.526 430.366ZM201.341 430.366C203.435 430.366 205.133 432.061 205.133 434.152C205.133 436.243 203.435 437.938 201.341 437.938C199.246 437.938 197.548 436.243 197.548 434.152C197.548 432.061 199.246 430.366 201.341 430.366ZM229.155 430.366C231.25 430.366 232.948 432.061 232.948 434.152C232.948 436.243 231.25 437.938 229.155 437.938C227.06 437.938 225.362 436.243 225.362 434.152C225.362 432.061 227.06 430.366 229.155 430.366ZM256.97 430.366C259.065 430.366 260.763 432.061 260.763 434.152C260.763 436.243 259.065 437.938 256.97 437.938C254.875 437.938 253.177 436.243 253.177 434.152C253.177 432.061 254.875 430.366 256.97 430.366ZM284.784 430.366C286.879 430.366 288.577 432.061 288.577 434.152C288.577 436.243 286.879 437.938 284.784 437.938C282.69 437.938 280.992 436.243 280.992 434.152C280.992 432.061 282.69 430.366 284.784 430.366ZM135.597 3.78621C135.597 5.87727 133.899 7.57241 131.804 7.57241C129.709 7.57241 128.011 5.87727 128.011 3.78621C128.011 1.69514 129.709 0 131.804 0C133.899 0 135.597 1.69514 135.597 3.78621ZM135.597 31.5517C135.597 33.6428 133.899 35.3379 131.804 35.3379C129.709 35.3379 128.011 33.6428 128.011 31.5517C128.011 29.4607 129.709 27.7655 131.804 27.7655C133.899 27.7655 135.597 29.4607 135.597 31.5517ZM135.597 59.3172C135.597 61.4083 133.899 63.1035 131.804 63.1035C129.709 63.1035 128.011 61.4083 128.011 59.3172C128.011 57.2262 129.709 55.531 131.804 55.531C133.899 55.531 135.597 57.2262 135.597 59.3172ZM135.597 87.0828C135.597 89.1738 133.899 90.869 131.804 90.869C129.709 90.869 128.011 89.1738 128.011 87.0828C128.011 84.9917 129.709 83.2966 131.804 83.2966C133.899 83.2966 135.597 84.9917 135.597 87.0828ZM135.597 114.848C135.597 116.939 133.899 118.634 131.804 118.634C129.709 118.634 128.011 116.939 128.011 114.848C128.011 112.757 129.709 111.062 131.804 111.062C133.899 111.062 135.597 112.757 135.597 114.848ZM135.597 142.614C135.597 144.705 133.899 146.4 131.804 146.4C129.709 146.4 128.011 144.705 128.011 142.614C128.011 140.523 129.709 138.828 131.804 138.828C133.899 138.828 135.597 140.523 135.597 142.614ZM135.597 170.379C135.597 172.47 133.899 174.166 131.804 174.166C129.709 174.166 128.011 172.47 128.011 170.379C128.011 168.288 129.709 166.593 131.804 166.593C133.899 166.593 135.597 168.288 135.597 170.379ZM135.597 198.145C135.597 200.236 133.899 201.931 131.804 201.931C129.709 201.931 128.011 200.236 128.011 198.145C128.011 196.054 129.709 194.359 131.804 194.359C133.899 194.359 135.597 196.054 135.597 198.145ZM135.597 225.91C135.597 228.001 133.899 229.697 131.804 229.697C129.709 229.697 128.011 228.001 128.011 225.91C128.011 223.819 129.709 222.124 131.804 222.124C133.899 222.124 135.597 223.819 135.597 225.91ZM135.597 253.676C135.597 255.767 133.899 257.462 131.804 257.462C129.709 257.462 128.011 255.767 128.011 253.676C128.011 251.585 129.709 249.89 131.804 249.89C133.899 249.89 135.597 251.585 135.597 253.676ZM135.597 281.441C135.597 283.532 133.899 285.228 131.804 285.228C129.709 285.228 128.011 283.532 128.011 281.441C128.011 279.35 129.709 277.655 131.804 277.655C133.899 277.655 135.597 279.35 135.597 281.441ZM135.597 309.207C135.597 311.298 133.899 312.993 131.804 312.993C129.709 312.993 128.011 311.298 128.011 309.207C128.011 307.116 129.709 305.421 131.804 305.421C133.899 305.421 135.597 307.116 135.597 309.207ZM135.597 336.972C135.597 339.063 133.899 340.759 131.804 340.759C129.709 340.759 128.011 339.063 128.011 336.972C128.011 334.881 129.709 333.186 131.804 333.186C133.899 333.186 135.597 334.881 135.597 336.972ZM135.597 364.738C135.597 366.829 133.899 368.524 131.804 368.524C129.709 368.524 128.011 366.829 128.011 364.738C128.011 362.647 129.709 360.952 131.804 360.952C133.899 360.952 135.597 362.647 135.597 364.738ZM163.412 170.379C163.412 172.47 161.713 174.166 159.619 174.166C157.524 174.166 155.826 172.47 155.826 170.379C155.826 168.288 157.524 166.593 159.619 166.593C161.713 166.593 163.412 168.288 163.412 170.379ZM163.412 198.145C163.412 200.236 161.713 201.931 159.619 201.931C157.524 201.931 155.826 200.236 155.826 198.145C155.826 196.054 157.524 194.359 159.619 194.359C161.713 194.359 163.412 196.054 163.412 198.145ZM163.412 225.91C163.412 228.001 161.713 229.697 159.619 229.697C157.524 229.697 155.826 228.001 155.826 225.91C155.826 223.819 157.524 222.124 159.619 222.124C161.713 222.124 163.412 223.819 163.412 225.91ZM163.412 253.676C163.412 255.767 161.713 257.462 159.619 257.462C157.524 257.462 155.826 255.767 155.826 253.676C155.826 251.585 157.524 249.89 159.619 249.89C161.713 249.89 163.412 251.585 163.412 253.676ZM163.412 3.78621C163.412 5.87727 161.713 7.57241 159.619 7.57241C157.524 7.57241 155.826 5.87727 155.826 3.78621C155.826 1.69514 157.524 0 159.619 0C161.713 0 163.412 1.69514 163.412 3.78621ZM163.412 59.3172C163.412 61.4083 161.713 63.1035 159.619 63.1035C157.524 63.1035 155.826 61.4083 155.826 59.3172C155.826 57.2262 157.524 55.531 159.619 55.531C161.713 55.531 163.412 57.2262 163.412 59.3172ZM163.412 114.848C163.412 116.939 161.713 118.634 159.619 118.634C157.524 118.634 155.826 116.939 155.826 114.848C155.826 112.757 157.524 111.062 159.619 111.062C161.713 111.062 163.412 112.757 163.412 114.848ZM163.412 142.614C163.412 144.705 161.713 146.4 159.619 146.4C157.524 146.4 155.826 144.705 155.826 142.614C155.826 140.523 157.524 138.828 159.619 138.828C161.713 138.828 163.412 140.523 163.412 142.614ZM163.412 309.207C163.412 311.298 161.713 312.993 159.619 312.993C157.524 312.993 155.826 311.298 155.826 309.207C155.826 307.116 157.524 305.421 159.619 305.421C161.713 305.421 163.412 307.116 163.412 309.207ZM163.412 336.972C163.412 339.063 161.713 340.759 159.619 340.759C157.524 340.759 155.826 339.063 155.826 336.972C155.826 334.881 157.524 333.186 159.619 333.186C161.713 333.186 163.412 334.881 163.412 336.972ZM163.412 31.5517C163.412 33.6428 161.713 35.3379 159.619 35.3379C157.524 35.3379 155.826 33.6428 155.826 31.5517C155.826 29.4607 157.524 27.7655 159.619 27.7655C161.713 27.7655 163.412 29.4607 163.412 31.5517ZM163.412 364.738C163.412 366.829 161.713 368.524 159.619 368.524C157.524 368.524 155.826 366.829 155.826 364.738C155.826 362.647 157.524 360.952 159.619 360.952C161.713 360.952 163.412 362.647 163.412 364.738ZM163.412 87.0828C163.412 89.1738 161.713 90.869 159.619 90.869C157.524 90.869 155.826 89.1738 155.826 87.0828C155.826 84.9917 157.524 83.2966 159.619 83.2966C161.713 83.2966 163.412 84.9917 163.412 87.0828ZM163.412 281.441C163.412 283.532 161.713 285.228 159.619 285.228C157.524 285.228 155.826 283.532 155.826 281.441C155.826 279.35 157.524 277.655 159.619 277.655C161.713 277.655 163.412 279.35 163.412 281.441ZM191.226 3.78621C191.226 5.87727 189.528 7.57241 187.433 7.57241C185.339 7.57241 183.64 5.87727 183.64 3.78621C183.64 1.69514 185.339 0 187.433 0C189.528 0 191.226 1.69514 191.226 3.78621ZM191.226 59.3172C191.226 61.4083 189.528 63.1035 187.433 63.1035C185.339 63.1035 183.64 61.4083 183.64 59.3172C183.64 57.2262 185.339 55.531 187.433 55.531C189.528 55.531 191.226 57.2262 191.226 59.3172ZM191.226 87.0828C191.226 89.1738 189.528 90.869 187.433 90.869C185.339 90.869 183.64 89.1738 183.64 87.0828C183.64 84.9917 185.339 83.2966 187.433 83.2966C189.528 83.2966 191.226 84.9917 191.226 87.0828ZM191.226 114.848C191.226 116.939 189.528 118.634 187.433 118.634C185.339 118.634 183.64 116.939 183.64 114.848C183.64 112.757 185.339 111.062 187.433 111.062C189.528 111.062 191.226 112.757 191.226 114.848ZM191.226 142.614C191.226 144.705 189.528 146.4 187.433 146.4C185.339 146.4 183.64 144.705 183.64 142.614C183.64 140.523 185.339 138.828 187.433 138.828C189.528 138.828 191.226 140.523 191.226 142.614ZM191.226 31.5517C191.226 33.6428 189.528 35.3379 187.433 35.3379C185.339 35.3379 183.64 33.6428 183.64 31.5517C183.64 29.4607 185.339 27.7655 187.433 27.7655C189.528 27.7655 191.226 29.4607 191.226 31.5517ZM191.226 170.379C191.226 172.47 189.528 174.166 187.433 174.166C185.339 174.166 183.64 172.47 183.64 170.379C183.64 168.288 185.339 166.593 187.433 166.593C189.528 166.593 191.226 168.288 191.226 170.379ZM191.226 198.145C191.226 200.236 189.528 201.931 187.433 201.931C185.339 201.931 183.64 200.236 183.64 198.145C183.64 196.054 185.339 194.359 187.433 194.359C189.528 194.359 191.226 196.054 191.226 198.145ZM191.226 225.91C191.226 228.001 189.528 229.697 187.433 229.697C185.339 229.697 183.64 228.001 183.64 225.91C183.64 223.819 185.339 222.124 187.433 222.124C189.528 222.124 191.226 223.819 191.226 225.91ZM191.226 253.676C191.226 255.767 189.528 257.462 187.433 257.462C185.339 257.462 183.64 255.767 183.64 253.676C183.64 251.585 185.339 249.89 187.433 249.89C189.528 249.89 191.226 251.585 191.226 253.676ZM191.226 281.441C191.226 283.532 189.528 285.228 187.433 285.228C185.339 285.228 183.64 283.532 183.64 281.441C183.64 279.35 185.339 277.655 187.433 277.655C189.528 277.655 191.226 279.35 191.226 281.441ZM191.226 309.207C191.226 311.298 189.528 312.993 187.433 312.993C185.339 312.993 183.64 311.298 183.64 309.207C183.64 307.116 185.339 305.421 187.433 305.421C189.528 305.421 191.226 307.116 191.226 309.207ZM191.226 336.972C191.226 339.063 189.528 340.759 187.433 340.759C185.339 340.759 183.64 339.063 183.64 336.972C183.64 334.881 185.339 333.186 187.433 333.186C189.528 333.186 191.226 334.881 191.226 336.972ZM191.226 364.738C191.226 366.829 189.528 368.524 187.433 368.524C185.339 368.524 183.64 366.829 183.64 364.738C183.64 362.647 185.339 360.952 187.433 360.952C189.528 360.952 191.226 362.647 191.226 364.738ZM219.041 3.78621C219.041 5.87727 217.343 7.57241 215.248 7.57241C213.153 7.57241 211.455 5.87727 211.455 3.78621C211.455 1.69514 213.153 0 215.248 0C217.343 0 219.041 1.69514 219.041 3.78621ZM219.041 31.5517C219.041 33.6428 217.343 35.3379 215.248 35.3379C213.153 35.3379 211.455 33.6428 211.455 31.5517C211.455 29.4607 213.153 27.7655 215.248 27.7655C217.343 27.7655 219.041 29.4607 219.041 31.5517ZM219.041 59.3172C219.041 61.4083 217.343 63.1035 215.248 63.1035C213.153 63.1035 211.455 61.4083 211.455 59.3172C211.455 57.2262 213.153 55.531 215.248 55.531C217.343 55.531 219.041 57.2262 219.041 59.3172ZM219.041 87.0828C219.041 89.1738 217.343 90.869 215.248 90.869C213.153 90.869 211.455 89.1738 211.455 87.0828C211.455 84.9917 213.153 83.2966 215.248 83.2966C217.343 83.2966 219.041 84.9917 219.041 87.0828ZM219.041 114.848C219.041 116.939 217.343 118.634 215.248 118.634C213.153 118.634 211.455 116.939 211.455 114.848C211.455 112.757 213.153 111.062 215.248 111.062C217.343 111.062 219.041 112.757 219.041 114.848ZM219.041 142.614C219.041 144.705 217.343 146.4 215.248 146.4C213.153 146.4 211.455 144.705 211.455 142.614C211.455 140.523 213.153 138.828 215.248 138.828C217.343 138.828 219.041 140.523 219.041 142.614ZM219.041 170.379C219.041 172.47 217.343 174.166 215.248 174.166C213.153 174.166 211.455 172.47 211.455 170.379C211.455 168.288 213.153 166.593 215.248 166.593C217.343 166.593 219.041 168.288 219.041 170.379ZM219.041 198.145C219.041 200.236 217.343 201.931 215.248 201.931C213.153 201.931 211.455 200.236 211.455 198.145C211.455 196.054 213.153 194.359 215.248 194.359C217.343 194.359 219.041 196.054 219.041 198.145ZM219.041 225.91C219.041 228.001 217.343 229.697 215.248 229.697C213.153 229.697 211.455 228.001 211.455 225.91C211.455 223.819 213.153 222.124 215.248 222.124C217.343 222.124 219.041 223.819 219.041 225.91ZM219.041 253.676C219.041 255.767 217.343 257.462 215.248 257.462C213.153 257.462 211.455 255.767 211.455 253.676C211.455 251.585 213.153 249.89 215.248 249.89C217.343 249.89 219.041 251.585 219.041 253.676ZM219.041 281.441C219.041 283.532 217.343 285.228 215.248 285.228C213.153 285.228 211.455 283.532 211.455 281.441C211.455 279.35 213.153 277.655 215.248 277.655C217.343 277.655 219.041 279.35 219.041 281.441ZM219.041 309.207C219.041 311.298 217.343 312.993 215.248 312.993C213.153 312.993 211.455 311.298 211.455 309.207C211.455 307.116 213.153 305.421 215.248 305.421C217.343 305.421 219.041 307.116 219.041 309.207ZM219.041 336.972C219.041 339.063 217.343 340.759 215.248 340.759C213.153 340.759 211.455 339.063 211.455 336.972C211.455 334.881 213.153 333.186 215.248 333.186C217.343 333.186 219.041 334.881 219.041 336.972ZM219.041 364.738C219.041 366.829 217.343 368.524 215.248 368.524C213.153 368.524 211.455 366.829 211.455 364.738C211.455 362.647 213.153 360.952 215.248 360.952C217.343 360.952 219.041 362.647 219.041 364.738ZM246.855 3.78621C246.855 5.87727 245.157 7.57241 243.062 7.57241C240.968 7.57241 239.27 5.87727 239.27 3.78621C239.27 1.69514 240.968 0 243.062 0C245.157 0 246.855 1.69514 246.855 3.78621ZM246.855 31.5517C246.855 33.6428 245.157 35.3379 243.062 35.3379C240.968 35.3379 239.27 33.6428 239.27 31.5517C239.27 29.4607 240.968 27.7655 243.062 27.7655C245.157 27.7655 246.855 29.4607 246.855 31.5517ZM246.855 59.3172C246.855 61.4083 245.157 63.1035 243.062 63.1035C240.968 63.1035 239.27 61.4083 239.27 59.3172C239.27 57.2262 240.968 55.531 243.062 55.531C245.157 55.531 246.855 57.2262 246.855 59.3172ZM246.855 87.0828C246.855 89.1738 245.157 90.869 243.062 90.869C240.968 90.869 239.27 89.1738 239.27 87.0828C239.27 84.9917 240.968 83.2966 243.062 83.2966C245.157 83.2966 246.855 84.9917 246.855 87.0828ZM246.855 114.848C246.855 116.939 245.157 118.634 243.062 118.634C240.968 118.634 239.27 116.939 239.27 114.848C239.27 112.757 240.968 111.062 243.062 111.062C245.157 111.062 246.855 112.757 246.855 114.848ZM246.855 142.614C246.855 144.705 245.157 146.4 243.062 146.4C240.968 146.4 239.27 144.705 239.27 142.614C239.27 140.523 240.968 138.828 243.062 138.828C245.157 138.828 246.855 140.523 246.855 142.614ZM246.855 170.379C246.855 172.47 245.157 174.166 243.062 174.166C240.968 174.166 239.27 172.47 239.27 170.379C239.27 168.288 240.968 166.593 243.062 166.593C245.157 166.593 246.855 168.288 246.855 170.379ZM246.855 198.145C246.855 200.236 245.157 201.931 243.062 201.931C240.968 201.931 239.27 200.236 239.27 198.145C239.27 196.054 240.968 194.359 243.062 194.359C245.157 194.359 246.855 196.054 246.855 198.145ZM246.855 225.91C246.855 228.001 245.157 229.697 243.062 229.697C240.968 229.697 239.27 228.001 239.27 225.91C239.27 223.819 240.968 222.124 243.062 222.124C245.157 222.124 246.855 223.819 246.855 225.91ZM246.855 253.676C246.855 255.767 245.157 257.462 243.062 257.462C240.968 257.462 239.27 255.767 239.27 253.676C239.27 251.585 240.968 249.89 243.062 249.89C245.157 249.89 246.855 251.585 246.855 253.676ZM246.855 281.441C246.855 283.532 245.157 285.228 243.062 285.228C240.968 285.228 239.27 283.532 239.27 281.441C239.27 279.35 240.968 277.655 243.062 277.655C245.157 277.655 246.855 279.35 246.855 281.441ZM246.855 309.207C246.855 311.298 245.157 312.993 243.062 312.993C240.968 312.993 239.27 311.298 239.27 309.207C239.27 307.116 240.968 305.421 243.062 305.421C245.157 305.421 246.855 307.116 246.855 309.207ZM246.855 336.972C246.855 339.063 245.157 340.759 243.062 340.759C240.968 340.759 239.27 339.063 239.27 336.972C239.27 334.881 240.968 333.186 243.062 333.186C245.157 333.186 246.855 334.881 246.855 336.972ZM246.855 364.738C246.855 366.829 245.157 368.524 243.062 368.524C240.968 368.524 239.27 366.829 239.27 364.738C239.27 362.647 240.968 360.952 243.062 360.952C245.157 360.952 246.855 362.647 246.855 364.738ZM274.67 3.78621C274.67 5.87727 272.972 7.57241 270.877 7.57241C268.782 7.57241 267.084 5.87727 267.084 3.78621C267.084 1.69514 268.782 0 270.877 0C272.972 0 274.67 1.69514 274.67 3.78621ZM274.67 31.5517C274.67 33.6428 272.972 35.3379 270.877 35.3379C268.782 35.3379 267.084 33.6428 267.084 31.5517C267.084 29.4607 268.782 27.7655 270.877 27.7655C272.972 27.7655 274.67 29.4607 274.67 31.5517ZM274.67 59.3172C274.67 61.4083 272.972 63.1035 270.877 63.1035C268.782 63.1035 267.084 61.4083 267.084 59.3172C267.084 57.2262 268.782 55.531 270.877 55.531C272.972 55.531 274.67 57.2262 274.67 59.3172ZM274.67 87.0828C274.67 89.1738 272.972 90.869 270.877 90.869C268.782 90.869 267.084 89.1738 267.084 87.0828C267.084 84.9917 268.782 83.2966 270.877 83.2966C272.972 83.2966 274.67 84.9917 274.67 87.0828ZM274.67 114.848C274.67 116.939 272.972 118.634 270.877 118.634C268.782 118.634 267.084 116.939 267.084 114.848C267.084 112.757 268.782 111.062 270.877 111.062C272.972 111.062 274.67 112.757 274.67 114.848ZM274.67 142.614C274.67 144.705 272.972 146.4 270.877 146.4C268.782 146.4 267.084 144.705 267.084 142.614C267.084 140.523 268.782 138.828 270.877 138.828C272.972 138.828 274.67 140.523 274.67 142.614ZM274.67 170.379C274.67 172.47 272.972 174.166 270.877 174.166C268.782 174.166 267.084 172.47 267.084 170.379C267.084 168.288 268.782 166.593 270.877 166.593C272.972 166.593 274.67 168.288 274.67 170.379ZM274.67 198.145C274.67 200.236 272.972 201.931 270.877 201.931C268.782 201.931 267.084 200.236 267.084 198.145C267.084 196.054 268.782 194.359 270.877 194.359C272.972 194.359 274.67 196.054 274.67 198.145ZM274.67 225.91C274.67 228.001 272.972 229.697 270.877 229.697C268.782 229.697 267.084 228.001 267.084 225.91C267.084 223.819 268.782 222.124 270.877 222.124C272.972 222.124 274.67 223.819 274.67 225.91ZM274.67 253.676C274.67 255.767 272.972 257.462 270.877 257.462C268.782 257.462 267.084 255.767 267.084 253.676C267.084 251.585 268.782 249.89 270.877 249.89C272.972 249.89 274.67 251.585 274.67 253.676ZM274.67 281.441C274.67 283.532 272.972 285.228 270.877 285.228C268.782 285.228 267.084 283.532 267.084 281.441C267.084 279.35 268.782 277.655 270.877 277.655C272.972 277.655 274.67 279.35 274.67 281.441ZM274.67 309.207C274.67 311.298 272.972 312.993 270.877 312.993C268.782 312.993 267.084 311.298 267.084 309.207C267.084 307.116 268.782 305.421 270.877 305.421C272.972 305.421 274.67 307.116 274.67 309.207ZM274.67 336.972C274.67 339.063 272.972 340.759 270.877 340.759C268.782 340.759 267.084 339.063 267.084 336.972C267.084 334.881 268.782 333.186 270.877 333.186C272.972 333.186 274.67 334.881 274.67 336.972ZM274.67 364.738C274.67 366.829 272.972 368.524 270.877 368.524C268.782 368.524 267.084 366.829 267.084 364.738C267.084 362.647 268.782 360.952 270.877 360.952C272.972 360.952 274.67 362.647 274.67 364.738ZM302.485 3.78621C302.485 5.87727 300.786 7.57241 298.692 7.57241C296.597 7.57241 294.899 5.87727 294.899 3.78621C294.899 1.69514 296.597 0 298.692 0C300.786 0 302.485 1.69514 302.485 3.78621ZM302.485 31.5517C302.485 33.6428 300.786 35.3379 298.692 35.3379C296.597 35.3379 294.899 33.6428 294.899 31.5517C294.899 29.4607 296.597 27.7655 298.692 27.7655C300.786 27.7655 302.485 29.4607 302.485 31.5517ZM302.485 59.3172C302.485 61.4083 300.786 63.1035 298.692 63.1035C296.597 63.1035 294.899 61.4083 294.899 59.3172C294.899 57.2262 296.597 55.531 298.692 55.531C300.786 55.531 302.485 57.2262 302.485 59.3172ZM302.485 87.0828C302.485 89.1738 300.786 90.869 298.692 90.869C296.597 90.869 294.899 89.1738 294.899 87.0828C294.899 84.9917 296.597 83.2966 298.692 83.2966C300.786 83.2966 302.485 84.9917 302.485 87.0828ZM302.485 114.848C302.485 116.939 300.786 118.634 298.692 118.634C296.597 118.634 294.899 116.939 294.899 114.848C294.899 112.757 296.597 111.062 298.692 111.062C300.786 111.062 302.485 112.757 302.485 114.848ZM302.485 142.614C302.485 144.705 300.786 146.4 298.692 146.4C296.597 146.4 294.899 144.705 294.899 142.614C294.899 140.523 296.597 138.828 298.692 138.828C300.786 138.828 302.485 140.523 302.485 142.614ZM302.485 170.379C302.485 172.47 300.786 174.166 298.692 174.166C296.597 174.166 294.899 172.47 294.899 170.379C294.899 168.288 296.597 166.593 298.692 166.593C300.786 166.593 302.485 168.288 302.485 170.379ZM302.485 198.145C302.485 200.236 300.786 201.931 298.692 201.931C296.597 201.931 294.899 200.236 294.899 198.145C294.899 196.054 296.597 194.359 298.692 194.359C300.786 194.359 302.485 196.054 302.485 198.145ZM302.485 225.91C302.485 228.001 300.786 229.697 298.692 229.697C296.597 229.697 294.899 228.001 294.899 225.91C294.899 223.819 296.597 222.124 298.692 222.124C300.786 222.124 302.485 223.819 302.485 225.91ZM302.485 253.676C302.485 255.767 300.786 257.462 298.692 257.462C296.597 257.462 294.899 255.767 294.899 253.676C294.899 251.585 296.597 249.89 298.692 249.89C300.786 249.89 302.485 251.585 302.485 253.676ZM302.485 281.441C302.485 283.532 300.786 285.228 298.692 285.228C296.597 285.228 294.899 283.532 294.899 281.441C294.899 279.35 296.597 277.655 298.692 277.655C300.786 277.655 302.485 279.35 302.485 281.441ZM302.485 309.207C302.485 311.298 300.786 312.993 298.692 312.993C296.597 312.993 294.899 311.298 294.899 309.207C294.899 307.116 296.597 305.421 298.692 305.421C300.786 305.421 302.485 307.116 302.485 309.207ZM302.485 336.972C302.485 339.063 300.786 340.759 298.692 340.759C296.597 340.759 294.899 339.063 294.899 336.972C294.899 334.881 296.597 333.186 298.692 333.186C300.786 333.186 302.485 334.881 302.485 336.972ZM302.485 364.738C302.485 366.829 300.786 368.524 298.692 368.524C296.597 368.524 294.899 366.829 294.899 364.738C294.899 362.647 296.597 360.952 298.692 360.952C300.786 360.952 302.485 362.647 302.485 364.738ZM330.299 3.78621C330.299 5.87727 328.601 7.57241 326.506 7.57241C324.412 7.57241 322.713 5.87727 322.713 3.78621C322.713 1.69514 324.412 0 326.506 0C328.601 0 330.299 1.69514 330.299 3.78621ZM330.299 31.5517C330.299 33.6428 328.601 35.3379 326.506 35.3379C324.412 35.3379 322.713 33.6428 322.713 31.5517C322.713 29.4607 324.412 27.7655 326.506 27.7655C328.601 27.7655 330.299 29.4607 330.299 31.5517ZM330.299 59.3172C330.299 61.4083 328.601 63.1035 326.506 63.1035C324.412 63.1035 322.713 61.4083 322.713 59.3172C322.713 57.2262 324.412 55.531 326.506 55.531C328.601 55.531 330.299 57.2262 330.299 59.3172ZM330.299 87.0828C330.299 89.1738 328.601 90.869 326.506 90.869C324.412 90.869 322.713 89.1738 322.713 87.0828C322.713 84.9917 324.412 83.2966 326.506 83.2966C328.601 83.2966 330.299 84.9917 330.299 87.0828ZM330.299 114.848C330.299 116.939 328.601 118.634 326.506 118.634C324.412 118.634 322.713 116.939 322.713 114.848C322.713 112.757 324.412 111.062 326.506 111.062C328.601 111.062 330.299 112.757 330.299 114.848ZM330.299 142.614C330.299 144.705 328.601 146.4 326.506 146.4C324.412 146.4 322.713 144.705 322.713 142.614C322.713 140.523 324.412 138.828 326.506 138.828C328.601 138.828 330.299 140.523 330.299 142.614ZM330.299 170.379C330.299 172.47 328.601 174.166 326.506 174.166C324.412 174.166 322.713 172.47 322.713 170.379C322.713 168.288 324.412 166.593 326.506 166.593C328.601 166.593 330.299 168.288 330.299 170.379ZM330.299 198.145C330.299 200.236 328.601 201.931 326.506 201.931C324.412 201.931 322.713 200.236 322.713 198.145C322.713 196.054 324.412 194.359 326.506 194.359C328.601 194.359 330.299 196.054 330.299 198.145ZM330.299 225.91C330.299 228.001 328.601 229.697 326.506 229.697C324.412 229.697 322.713 228.001 322.713 225.91C322.713 223.819 324.412 222.124 326.506 222.124C328.601 222.124 330.299 223.819 330.299 225.91ZM330.299 253.676C330.299 255.767 328.601 257.462 326.506 257.462C324.412 257.462 322.713 255.767 322.713 253.676C322.713 251.585 324.412 249.89 326.506 249.89C328.601 249.89 330.299 251.585 330.299 253.676ZM330.299 281.441C330.299 283.532 328.601 285.228 326.506 285.228C324.412 285.228 322.713 283.532 322.713 281.441C322.713 279.35 324.412 277.655 326.506 277.655C328.601 277.655 330.299 279.35 330.299 281.441ZM330.299 309.207C330.299 311.298 328.601 312.993 326.506 312.993C324.412 312.993 322.713 311.298 322.713 309.207C322.713 307.116 324.412 305.421 326.506 305.421C328.601 305.421 330.299 307.116 330.299 309.207ZM330.299 336.972C330.299 339.063 328.601 340.759 326.506 340.759C324.412 340.759 322.713 339.063 322.713 336.972C322.713 334.881 324.412 333.186 326.506 333.186C328.601 333.186 330.299 334.881 330.299 336.972ZM330.299 364.738C330.299 366.829 328.601 368.524 326.506 368.524C324.412 368.524 322.713 366.829 322.713 364.738C322.713 362.647 324.412 360.952 326.506 360.952C328.601 360.952 330.299 362.647 330.299 364.738Z" fill="#F6F6F6"/>
<path fill-rule="evenodd" clip-rule="evenodd" d="M392.026 101.798C440.575 122.25 474.739 170.974 483.01 221.803C491.282 272.633 473.301 325.567 437.698 363.163C402.096 400.758 348.872 423.316 294.209 438.354C239.187 453.693 182.727 461.513 139.572 445.572C96.4179 429.632 66.5694 389.63 40.6767 349.027C14.7839 308.724 -7.15293 267.82 2.19721 232.932C11.907 198.043 52.5441 169.47 93.5409 148.116C134.538 126.762 175.175 112.325 227.32 101.197C279.465 89.7679 343.118 81.6472 392.026 101.798Z" fill="#F6F6F6"/>
<path fill-rule="evenodd" clip-rule="evenodd" d="M7.57855 429.685C9.43047 429.685 11.1097 430.441 12.326 431.66C13.5428 432.88 14.2967 434.564 14.2967 436.422C14.2967 438.279 13.5427 439.963 12.3258 441.183C11.1094 442.402 9.43034 443.158 7.57855 443.158C5.72675 443.158 4.04767 442.402 2.83133 441.183C1.61443 439.963 0.860352 438.279 0.860352 436.422C0.860352 434.564 1.61429 432.88 2.83105 431.66C4.04741 430.441 5.72662 429.685 7.57855 429.685ZM7.57855 430.248C5.88035 430.248 4.33978 430.94 3.22402 432.059C2.10903 433.177 1.4186 434.72 1.4186 436.422C1.4186 438.124 2.10903 439.667 3.22402 440.785C4.33978 441.903 5.88035 442.596 7.57855 442.596C9.27725 442.596 10.8177 441.903 11.9332 440.785C13.0482 439.667 13.7385 438.124 13.7385 436.422C13.7385 434.72 13.0482 433.176 11.9332 432.059C10.8177 430.94 9.27725 430.248 7.57855 430.248ZM400.263 341.054C400.395 341.054 400.527 341.104 400.629 341.207C400.73 341.309 400.781 341.442 400.781 341.575C400.781 341.709 400.73 341.842 400.628 341.944L394.796 347.79L400.628 353.636C400.73 353.738 400.781 353.872 400.781 354.005C400.781 354.139 400.73 354.272 400.628 354.374C400.527 354.476 400.395 354.527 400.262 354.527C400.13 354.527 399.998 354.476 399.897 354.374L394.062 348.525L388.229 354.374C388.128 354.476 387.996 354.527 387.863 354.527C387.731 354.527 387.599 354.476 387.498 354.374C387.396 354.272 387.345 354.139 387.345 354.005C387.345 353.872 387.396 353.738 387.498 353.636L393.329 347.79L387.498 341.944C387.396 341.842 387.345 341.709 387.345 341.575C387.345 341.442 387.396 341.309 387.499 341.205C387.599 341.104 387.731 341.054 387.863 341.054L394.062 347.052L399.897 341.206C399.998 341.105 400.13 341.054 400.263 341.054ZM97.1374 325.86C97.27 325.86 97.4025 325.911 97.5038 326.012C97.6052 326.114 97.6556 326.247 97.6556 326.381C97.6556 326.515 97.6048 326.649 97.5039 326.75L91.671 332.596L97.5032 338.442C97.605 338.544 97.6561 338.678 97.6561 338.811C97.6561 338.945 97.605 339.078 97.5032 339.18C97.4023 339.282 97.2699 339.333 97.1374 339.333C97.0048 339.333 96.8724 339.282 96.7716 339.18L90.9375 333.331L85.1043 339.18C85.0034 339.282 84.871 339.333 84.7385 339.333C84.6059 339.333 84.4735 339.282 84.3726 339.18C84.2708 339.078 84.2197 338.945 84.2197 338.811C84.2197 338.678 84.2708 338.544 84.3727 338.442L90.2039 332.596L84.3729 326.751C84.271 326.649 84.2202 326.515 84.2202 326.381C84.2202 326.247 84.2706 326.114 84.3721 326.012C84.4733 325.911 84.6058 325.86 84.7384 325.86L90.9375 331.86L96.7729 326.012C96.8735 325.91 97.0054 325.86 97.1374 325.86ZM394.062 196.711C395.915 196.711 397.594 197.466 398.81 198.686C400.027 199.905 400.781 201.589 400.781 203.447C400.781 205.304 400.027 206.989 398.81 208.209C397.594 209.428 395.915 210.184 394.062 210.184C392.21 210.184 390.532 209.428 389.315 208.209C388.099 206.989 387.345 205.304 387.345 203.447C387.345 201.589 388.099 199.905 389.315 198.686C390.532 197.466 392.211 196.711 394.062 196.711ZM394.062 197.273C392.364 197.273 390.824 197.965 389.708 199.084C388.593 200.201 387.903 201.745 387.903 203.447C387.903 205.149 388.593 206.692 389.708 207.81C390.824 208.929 392.364 209.621 394.062 209.621C395.761 209.621 397.301 208.929 398.417 207.81C399.532 206.692 400.223 205.148 400.223 203.447C400.223 201.745 399.532 200.201 398.417 199.084C397.301 197.965 395.761 197.273 394.062 197.273ZM483.622 90.3527C483.754 90.3527 483.887 90.4032 483.987 90.5042C484.089 90.6064 484.14 90.7401 484.14 90.8738C484.14 91.007 484.09 91.1401 483.988 91.2423L478.155 97.0887L483.988 102.935C484.089 103.037 484.141 103.171 484.141 103.304C484.141 103.438 484.089 103.571 483.988 103.673C483.887 103.775 483.754 103.826 483.622 103.826C483.489 103.826 483.357 103.775 483.256 103.673L477.422 97.8238L471.589 103.673C471.488 103.775 471.355 103.826 471.223 103.826C471.09 103.826 470.958 103.775 470.857 103.673C470.755 103.571 470.704 103.438 470.704 103.304C470.704 103.171 470.755 103.037 470.857 102.935L476.688 97.0887L470.856 91.2416C470.755 91.1401 470.704 91.007 470.704 90.8738C470.704 90.7401 470.755 90.6064 470.857 90.5042C470.958 90.4032 471.09 90.3527 471.222 90.3527L477.422 96.3516L483.255 90.505C483.357 90.4036 483.489 90.3527 483.622 90.3527ZM95.3748 92.0254C96.7669 93.2519 97.5312 94.932 97.642 96.654C97.7529 98.376 97.2104 100.14 95.9869 101.536C94.8077 102.881 93.1784 103.689 91.3963 103.81C89.3202 103.819 87.7498 103.246 86.5045 102.148C85.1559 100.961 84.3501 99.318 84.234 97.5209C84.1188 95.7253 84.7076 93.9913 85.894 92.6389C87.1164 91.2439 88.791 90.4779 90.5077 90.3668C92.2243 90.2557 93.9834 90.7995 95.3748 92.0254ZM90.9433 90.9153C89.2314 90.9153 87.5277 91.6245 86.3111 93.0114C85.2253 94.2511 84.6854 95.8393 84.7926 97.4858C84.8984 99.1305 85.6372 100.636 86.8721 101.724C88.1096 102.815 89.6987 103.361 91.3388 103.249C92.979 103.143 94.4819 102.401 95.5676 101.163C96.6885 99.8848 97.1867 98.2687 97.0853 96.6908C96.9839 95.1128 96.283 93.5736 95.0079 92.4492C93.8392 91.4211 92.3879 90.9153 90.9433 90.9153Z" stroke="#E5E5E5"/>
<path fill-rule="evenodd" clip-rule="evenodd" d="M144.813 200.798C143.129 200.798 141.76 199.428 141.76 197.743C141.76 196.059 143.129 194.689 144.813 194.689C146.496 194.689 147.865 196.059 147.865 197.743C147.865 199.428 146.496 200.798 144.813 200.798Z" fill="#ECECFE"/>
<path fill-rule="evenodd" clip-rule="evenodd" d="M318.818 368.811C317.135 368.811 315.766 367.441 315.766 365.756C315.766 364.072 317.135 362.701 318.818 362.701C320.502 362.701 321.871 364.072 321.871 365.756C321.871 367.441 320.502 368.811 318.818 368.811Z" fill="#ECECFE"/>
<path fill-rule="evenodd" clip-rule="evenodd" d="M321.871 182.469C320.188 182.469 318.818 181.099 318.818 179.415C318.818 177.73 320.188 176.36 321.871 176.36C323.554 176.36 324.924 177.73 324.924 179.415C324.924 181.099 323.554 182.469 321.871 182.469Z" fill="#ECECFE"/>
<path fill-rule="evenodd" clip-rule="evenodd" d="M184.498 384.085C182.815 384.085 181.445 382.715 181.445 381.03C181.445 379.346 182.815 377.975 184.498 377.975C186.181 377.975 187.551 379.346 187.551 381.03C187.551 382.715 186.181 384.085 184.498 384.085Z" fill="#ECECFE"/>
<path d="M242.501 260.52L268.251 234.752C270.755 232.247 274.814 232.247 277.318 234.752C279.676 237.112 279.827 240.881 277.648 243.467L277.318 243.824L251.567 269.592L280.248 298.292L280.578 298.649C282.758 301.236 282.606 305.004 280.248 307.364C277.745 309.869 273.686 309.869 271.182 307.364L242.501 278.664L213.82 307.364C211.317 309.869 207.258 309.869 204.754 307.364C202.396 305.004 202.245 301.236 204.424 298.649L204.754 298.292L233.435 269.592L207.685 243.824L207.355 243.467C205.175 240.881 205.327 237.112 207.685 234.752C210.188 232.247 214.248 232.247 216.751 234.752L242.501 260.52Z" fill="#E1000F"/>
<path d="M294.397 185.524C312.649 185.524 327.499 200.095 327.966 218.246L327.977 219.127V237.455C327.977 239.143 326.611 240.51 324.925 240.51C323.359 240.51 322.069 239.331 321.892 237.812L321.872 237.455V219.127C321.872 204.214 310.006 192.074 295.207 191.645L294.397 191.634H190.604C175.701 191.634 163.569 203.507 163.141 218.316L163.129 219.127V322.989C163.129 337.902 174.994 350.042 189.794 350.471L190.604 350.482H294.397C309.3 350.482 321.432 338.609 321.86 323.8L321.872 322.989V280.222C321.872 278.535 323.239 277.168 324.925 277.168C326.49 277.168 327.78 278.347 327.957 279.866L327.977 280.222V322.989C327.977 341.253 313.416 356.113 295.278 356.581L294.397 356.592H190.604C172.352 356.592 157.502 342.021 157.035 323.87L157.023 322.989V219.127C157.023 200.863 171.584 186.003 189.723 185.535L190.604 185.524H294.397Z" fill="#000091"/>
<path d="M334.083 243.565C334.083 241.878 335.45 240.51 337.136 240.51C338.822 240.51 340.188 241.878 340.188 243.565C340.188 245.252 338.822 246.62 337.136 246.62C335.45 246.62 334.083 245.252 334.083 243.565Z" fill="#000091"/>
<path d="M340.168 255.428C339.991 253.909 338.701 252.729 337.136 252.729C335.45 252.729 334.083 254.097 334.083 255.784V304.661L334.103 305.017C334.28 306.536 335.57 307.715 337.136 307.715C338.822 307.715 340.188 306.348 340.188 304.661V255.784L340.168 255.428Z" fill="#000091"/>
</g>
<defs>
<clipPath id="clip0_11272_80015">
<rect width="485" height="549" fill="white"/>
</clipPath>
</defs>
</svg>
