<svg width="337" height="338" viewBox="0 0 337 338" fill="none" xmlns="http://www.w3.org/2000/svg">
<g clip-path="url(#clip0_1664_44357)">
<path d="M329.9 223.9C314.9 258.6 232.7 324.9 110.7 333.4C47.3002 337.8 -18.6998 290.2 4.80016 172.1C17.0002 111.3 61.3002 50.4 105.2 21.8C149 -6.80003 234.8 5.89996 278.5 42.1C322.2 78.2 351.1 174.9 329.9 224V223.9Z" fill="#F0F0FC"/>
<path d="M275.4 117.9V150.4C274.3 152.5 273.7 154.9 273.7 157.4V161H271.1C269.5 161 268.2 162.3 268.2 163.9V189.7C268.2 191.3 269.5 192.6 271.1 192.6H275.5V263.8C275.5 265.4 274.9 266.9 273.8 268C272.7 269.1 271.2 269.7 269.6 269.7H110.5C108.7 269.7 107.1 269 105.8 267.8C104.6 266.6 103.9 264.9 103.9 263.1V117.9C103.9 116.1 104.6 114.5 105.8 113.2C107 112 108.7 111.3 110.5 111.3H268.7C270.5 111.3 272.1 112 273.4 113.2C274.7 114.4 275.3 116.1 275.3 117.9H275.4Z" fill="#E4794A"/>
<path d="M268.1 163.9V189.7C268.1 191.3 269.4 192.6 271 192.6H275.4V263.1C275.4 264.9 274.7 266.5 273.5 267.8C272.3 269 270.6 269.7 268.8 269.7H110.5C108.7 269.7 107.1 269 105.8 267.8C104.6 266.6 103.9 264.9 103.9 263.1V131.1H275.4V150.3C274.3 152.4 273.7 154.8 273.7 157.3V160.9H271.1C269.5 160.9 268.2 162.2 268.2 163.8L268.1 163.9Z" fill="#F6BD5F"/>
<path d="M119.001 124.9C120.601 124.9 121.801 123.6 121.801 122.1C121.801 120.6 120.501 119.3 119.001 119.3C117.501 119.3 116.201 120.6 116.201 122.1C116.201 123.6 117.501 124.9 119.001 124.9Z" fill="white"/>
<path d="M129.501 124.9C131.101 124.9 132.301 123.6 132.301 122.1C132.301 120.6 131.001 119.3 129.501 119.3C128.001 119.3 126.701 120.6 126.701 122.1C126.701 123.6 128.001 124.9 129.501 124.9Z" fill="white"/>
<path d="M140.101 124.9C141.701 124.9 142.901 123.6 142.901 122.1C142.901 120.6 141.601 119.3 140.101 119.3C138.601 119.3 137.301 120.6 137.301 122.1C137.301 123.6 138.601 124.9 140.101 124.9Z" fill="white"/>
<path d="M261.001 123.6H183.101C182.801 123.6 182.501 123.6 182.301 123.5C182.001 123.4 181.801 123.2 181.601 123C181.401 122.8 181.201 122.6 181.101 122.3C181.001 122 180.901 121.8 180.901 121.5C180.901 121.2 180.901 120.9 181.101 120.7C181.201 120.4 181.401 120.2 181.601 120C181.801 119.8 182.001 119.6 182.301 119.5C182.601 119.4 182.901 119.3 183.101 119.4H261.001C261.301 119.4 261.601 119.4 261.801 119.5C262.101 119.6 262.301 119.8 262.501 120C262.701 120.2 262.901 120.4 263.001 120.7C263.101 121 263.201 121.2 263.201 121.5C263.201 121.8 263.201 122.1 263.001 122.3C262.901 122.6 262.701 122.8 262.501 123C262.301 123.2 262.101 123.4 261.801 123.5C261.501 123.6 261.201 123.7 261.001 123.6ZM189.701 200.8C184.601 200.8 179.501 199.5 175.101 196.9C175.001 196.9 174.901 196.7 174.901 196.6C174.901 196.5 174.901 196.3 174.901 196.2C174.901 196.1 175.101 196 175.201 196C175.301 196 175.501 196 175.601 196C181.901 199.6 189.301 200.7 196.401 199C203.501 197.3 209.601 193 213.601 187C217.601 180.9 219.201 173.6 217.901 166.4C216.701 159.2 212.801 152.8 207.001 148.5C201.201 144.1 194.001 142.1 186.701 142.9C179.501 143.7 172.801 147.2 168.101 152.7C163.401 158.2 160.901 165.3 161.201 172.6C161.501 179.9 164.601 186.7 169.801 191.8C169.801 191.8 169.901 192 169.901 192.1C169.901 192.2 169.901 192.4 169.801 192.4C169.801 192.4 169.601 192.5 169.501 192.5C169.401 192.5 169.201 192.5 169.201 192.4C164.301 187.6 161.201 181.3 160.501 174.5C159.701 167.7 161.401 160.9 165.101 155.2C168.801 149.5 174.401 145.2 181.001 143.2C187.501 141.2 194.501 141.4 200.901 144C207.201 146.6 212.501 151.3 215.701 157.3C219.001 163.3 220.001 170.3 218.701 177C217.401 183.7 213.801 189.7 208.501 194.1C203.201 198.4 196.601 200.8 189.801 200.8H189.701Z" fill="white"/>
<path d="M210.7 183.4C208.6 187.1 205.5 190.2 201.8 192.3C198.1 194.4 193.9 195.6 189.6 195.6C185.3 195.6 181.1 194.5 177.4 192.3C173.7 190.2 170.6 187.1 168.5 183.4C170.6 179.7 173.7 176.6 177.4 174.5C181.1 172.4 185.3 171.2 189.6 171.2C193.9 171.2 198.1 172.3 201.8 174.5C205.5 176.6 208.6 179.7 210.7 183.4Z" fill="white"/>
<path d="M189.7 172.3C195.6 172.3 200.3 167.5 200.3 161.7C200.3 155.9 195.5 151.1 189.7 151.1C183.9 151.1 179.1 155.9 179.1 161.7C179.1 167.5 183.9 172.3 189.7 172.3Z" fill="white"/>
<path d="M233.3 228.799H207.1C207 228.799 206.8 228.799 206.8 228.699C206.8 228.699 206.7 228.499 206.7 228.399C206.7 228.299 206.7 228.099 206.8 228.099C206.8 228.099 207 227.999 207.1 227.999H232.9V213.299H146.6V227.999H201.5C201.6 227.999 201.8 227.999 201.8 228.099C201.8 228.099 201.9 228.299 201.9 228.399C201.9 228.499 201.9 228.699 201.8 228.699C201.7 228.699 201.6 228.799 201.5 228.799H146.1C146 228.799 145.8 228.799 145.8 228.699C145.8 228.699 145.7 228.499 145.7 228.399V212.799C145.7 212.699 145.7 212.499 145.8 212.499C145.8 212.499 146 212.399 146.1 212.399H233.4C233.5 212.399 233.7 212.399 233.7 212.499C233.7 212.499 233.8 212.699 233.8 212.799V228.399C233.8 228.499 233.8 228.699 233.7 228.699C233.7 228.699 233.5 228.799 233.4 228.799H233.3ZM233.3 255.899H146C145.9 255.899 145.7 255.899 145.7 255.799C145.7 255.799 145.6 255.599 145.6 255.499V239.899C145.6 239.799 145.6 239.599 145.7 239.599C145.7 239.599 145.9 239.499 146 239.499H233.3C233.4 239.499 233.6 239.499 233.6 239.599C233.6 239.599 233.7 239.799 233.7 239.899V255.499C233.7 255.599 233.7 255.799 233.6 255.799C233.5 255.799 233.4 255.899 233.3 255.899ZM146.5 254.899H232.8V240.199H146.5V254.899Z" fill="white"/>
<path d="M225.2 223.3H155.2C154.9 223.3 154.5 223.3 154.2 223.1C153.9 222.9 153.6 222.8 153.3 222.5C153.1 222.3 152.9 222 152.7 221.7C152.6 221.4 152.5 221 152.5 220.7C152.5 220.4 152.5 220 152.7 219.7C152.8 219.4 153 219.1 153.3 218.9C153.5 218.7 153.8 218.5 154.2 218.3C154.5 218.2 154.9 218.1 155.2 218.1H225.2C225.5 218.1 225.9 218.1 226.2 218.3C226.5 218.4 226.8 218.6 227.1 218.9C227.4 219.2 227.5 219.4 227.7 219.7C227.8 220 227.9 220.4 227.9 220.7C227.9 221 227.9 221.4 227.7 221.7C227.6 222 227.4 222.3 227.1 222.5C226.9 222.7 226.6 222.9 226.2 223.1C225.9 223.2 225.5 223.3 225.2 223.3ZM157.3 252.3C157.2 252.3 157 252.3 157 252.2C157 252.2 156.9 252 156.9 251.9V243.3C156.9 243.2 156.9 243 157 243C157 243 157.2 242.9 157.3 242.9C157.4 242.9 157.6 242.9 157.6 243C157.6 243 157.7 243.2 157.7 243.3V251.9C157.7 252 157.7 252.2 157.6 252.2C157.6 252.2 157.4 252.3 157.3 252.3Z" fill="#E4794A"/>
<path d="M153.6 250.099C153.5 250.099 153.4 250.099 153.3 249.999C153.3 249.999 153.2 249.799 153.1 249.699C153.1 249.599 153.1 249.499 153.1 249.399C153.1 249.399 153.2 249.199 153.3 249.199L160.7 244.899C160.8 244.899 160.9 244.899 161.1 244.899C161.2 244.899 161.3 244.999 161.4 245.099C161.4 245.199 161.4 245.299 161.4 245.499C161.4 245.599 161.3 245.699 161.2 245.799C153.1 250.399 153.7 250.099 153.5 250.099H153.6Z" fill="#E4794A"/>
<path d="M161 250.1C160.8 250.1 161.5 250.4 153.3 245.7C153.2 245.7 153.1 245.5 153.1 245.4C153.1 245.3 153.1 245.1 153.1 245C153.1 244.9 153.3 244.8 153.4 244.8C153.5 244.8 153.7 244.8 153.8 244.8L161.2 249.1C161.2 249.1 161.4 249.2 161.4 249.3C161.4 249.4 161.4 249.5 161.4 249.6C161.4 249.7 161.4 249.8 161.2 249.9C161.2 249.9 161 250 160.9 249.9L161 250.1ZM170.3 252.4C170.2 252.4 170 252.4 170 252.3C170 252.3 169.9 252.1 169.9 252V243.4C169.9 243.3 169.9 243.1 170 243.1C170 243.1 170.2 243 170.3 243C170.4 243 170.6 243 170.6 243.1C170.6 243.1 170.7 243.3 170.7 243.4V252C170.7 252.1 170.7 252.3 170.6 252.3C170.6 252.3 170.4 252.4 170.3 252.4Z" fill="#E4794A"/>
<path d="M166.6 250.2C166.5 250.2 166.4 250.2 166.3 250.1C166.3 250.1 166.2 249.9 166.1 249.8C166.1 249.7 166.1 249.6 166.1 249.5C166.1 249.5 166.2 249.3 166.3 249.3L173.7 245C173.8 245 173.9 245 174.1 245C174.2 245 174.3 245.1 174.4 245.2C174.4 245.3 174.4 245.4 174.4 245.6C174.4 245.7 174.3 245.8 174.2 245.9C166.1 250.6 166.7 250.3 166.5 250.3L166.6 250.2Z" fill="#E4794A"/>
<path d="M174.101 250.2C173.901 250.2 174.601 250.5 166.401 245.8C166.401 245.8 166.301 245.8 166.201 245.7C166.201 245.7 166.201 245.6 166.201 245.5C166.201 245.5 166.201 245.4 166.201 245.3C166.201 245.3 166.201 245.2 166.201 245.1C166.201 245.1 166.201 245 166.301 245C166.301 245 166.401 245 166.501 245C166.501 245 166.601 245 166.701 245C166.701 245 166.801 245 166.901 245L174.301 249.3C174.301 249.3 174.501 249.4 174.501 249.5C174.501 249.6 174.501 249.7 174.501 249.8C174.501 249.9 174.501 250 174.301 250.1C174.301 250.1 174.101 250.2 174.001 250.1L174.101 250.2ZM183.401 252.4C183.301 252.4 183.101 252.4 183.101 252.3C183.101 252.3 183.001 252.1 183.001 252V243.4C183.001 243.3 183.001 243.1 183.101 243.1C183.101 243.1 183.301 243 183.401 243C183.501 243 183.701 243 183.701 243.1C183.701 243.1 183.801 243.3 183.801 243.4V252C183.801 252.1 183.801 252.3 183.701 252.3C183.701 252.3 183.501 252.4 183.401 252.4Z" fill="#E4794A"/>
<path d="M179.701 250.3C179.601 250.3 179.501 250.3 179.401 250.2C179.301 250.1 179.301 250 179.201 249.9C179.201 249.8 179.201 249.7 179.201 249.6C179.201 249.6 179.301 249.4 179.401 249.4L186.801 245.1C186.801 245.1 186.901 245.1 187.001 245.1C187.001 245.1 187.101 245.1 187.201 245.1C187.201 245.1 187.301 245.1 187.401 245.1C187.401 245.1 187.401 245.1 187.501 245.2C187.501 245.2 187.501 245.3 187.501 245.4C187.501 245.4 187.501 245.5 187.501 245.6C187.501 245.6 187.501 245.7 187.501 245.8C187.501 245.8 187.501 245.8 187.301 245.9C179.201 250.6 179.801 250.2 179.601 250.2L179.701 250.3Z" fill="#E4794A"/>
<path d="M187.101 250.3C186.901 250.3 187.601 250.6 179.401 245.9C179.301 245.9 179.201 245.7 179.201 245.6C179.201 245.5 179.201 245.3 179.201 245.2C179.201 245.1 179.401 245 179.501 245C179.601 245 179.801 245 179.901 245L187.301 249.3C187.301 249.3 187.501 249.4 187.501 249.5C187.501 249.5 187.501 249.7 187.501 249.8C187.501 249.9 187.501 250 187.301 250.1C187.301 250.1 187.101 250.2 187.001 250.2L187.101 250.3ZM196.501 252.5C196.401 252.5 196.201 252.5 196.201 252.4C196.201 252.4 196.101 252.2 196.101 252.1V243.5C196.101 243.4 196.101 243.2 196.201 243.2C196.201 243.2 196.401 243.1 196.501 243.1C196.601 243.1 196.801 243.1 196.801 243.2C196.801 243.3 196.901 243.4 196.901 243.5V252.1C196.901 252.2 196.901 252.4 196.801 252.4C196.801 252.4 196.601 252.5 196.501 252.5Z" fill="#E4794A"/>
<path d="M192.801 250.4C192.701 250.4 192.601 250.4 192.501 250.3C192.501 250.3 192.401 250.1 192.301 250C192.301 249.9 192.301 249.8 192.301 249.7C192.301 249.6 192.401 249.5 192.501 249.5L199.901 245.2C199.901 245.2 200.001 245.2 200.101 245.2C200.101 245.2 200.201 245.2 200.301 245.2C200.301 245.2 200.401 245.2 200.501 245.2C200.501 245.2 200.501 245.2 200.601 245.3C200.601 245.3 200.601 245.4 200.601 245.5C200.601 245.5 200.601 245.6 200.601 245.7C200.601 245.7 200.601 245.8 200.601 245.9C200.601 246 200.601 245.9 200.501 246C192.401 250.7 193.001 250.4 192.801 250.4Z" fill="#E4794A"/>
<path d="M200.201 250.4C200.001 250.4 200.701 250.7 192.501 246C192.401 246 192.301 245.8 192.301 245.7C192.301 245.6 192.301 245.4 192.301 245.3C192.301 245.2 192.501 245.1 192.601 245.1C192.701 245.1 192.901 245.1 193.001 245.1L200.401 249.4C200.401 249.4 200.601 249.5 200.601 249.6C200.601 249.7 200.601 249.8 200.601 249.9C200.601 250 200.601 250.1 200.401 250.2C200.401 250.2 200.201 250.3 200.101 250.3L200.201 250.4ZM212.501 251.8H204.401C204.301 251.8 204.101 251.8 204.101 251.7C204.101 251.7 204.001 251.5 204.001 251.4C204.001 251.3 204.001 251.1 204.101 251.1C204.101 251.1 204.301 251 204.401 251H212.501C212.601 251 212.801 251 212.801 251.1C212.801 251.1 212.901 251.3 212.901 251.4C212.901 251.5 212.901 251.7 212.801 251.7C212.801 251.7 212.601 251.8 212.501 251.8ZM225.801 251.8H217.701C217.601 251.8 217.401 251.8 217.401 251.7C217.401 251.7 217.301 251.5 217.301 251.4C217.301 251.3 217.301 251.1 217.401 251.1C217.401 251.1 217.601 251 217.701 251H225.801C225.901 251 226.101 251 226.101 251.1C226.101 251.1 226.201 251.3 226.201 251.4C226.201 251.5 226.201 251.7 226.101 251.7C226.001 251.7 225.901 251.8 225.801 251.8Z" fill="#E4794A"/>
<path d="M306.401 160.999H303.801V157.399C303.801 153.399 302.201 149.599 299.401 146.799C296.601 143.999 292.801 142.399 288.801 142.399C284.801 142.399 281.001 143.999 278.201 146.799C277.101 147.899 276.201 149.099 275.501 150.399C274.401 152.499 273.801 154.899 273.801 157.399V160.999H271.201C269.601 160.999 268.301 162.299 268.301 163.899V189.699C268.301 191.299 269.601 192.599 271.201 192.599H306.601C308.201 192.599 309.501 191.299 309.501 189.699V163.899C309.501 162.299 308.201 160.999 306.601 160.999H306.401ZM290.301 177.599V182.599H287.101V177.599C286.001 176.999 285.201 175.899 285.201 174.499C285.201 172.599 286.801 170.999 288.701 170.999C290.601 170.999 292.201 172.599 292.201 174.499C292.201 176.399 291.401 176.999 290.301 177.599ZM298.701 160.999H278.801V157.399C278.801 154.799 279.901 152.299 281.801 150.499C283.701 148.699 286.201 147.599 288.801 147.599C291.401 147.599 293.901 148.599 295.801 150.499C297.701 152.299 298.701 154.799 298.801 157.399V160.999H298.701Z" fill="#6A6AF4"/>
<path d="M292.201 174.5C292.201 175.8 291.401 177 290.301 177.6V182.6H287.101V177.6C286.001 177 285.201 175.9 285.201 174.5C285.201 172.6 286.801 171 288.701 171C290.601 171 292.201 172.6 292.201 174.5Z" fill="white"/>
<path d="M240.3 248.8H238.8C238.7 248.8 238.5 248.8 238.5 248.7C238.5 248.7 238.4 248.5 238.4 248.4C238.4 248.3 238.4 248.1 238.5 248.1C238.5 248.1 238.7 248 238.8 248H240.3C240.4 248 240.6 248 240.6 248.1C240.6 248.1 240.7 248.3 240.7 248.4C240.7 248.5 240.7 248.7 240.6 248.7C240.6 248.7 240.4 248.8 240.3 248.8ZM283.2 248.8H280.1C280 248.8 279.8 248.8 279.8 248.7C279.8 248.7 279.7 248.5 279.7 248.4C279.7 248.3 279.7 248.1 279.8 248.1C279.8 248.1 280 248 280.1 248H283.2C283.3 248 283.5 248 283.5 248.1C283.5 248.1 283.6 248.3 283.6 248.4C283.6 248.5 283.6 248.7 283.5 248.7C283.5 248.7 283.3 248.8 283.2 248.8ZM277 248.8H273.9C273.8 248.8 273.6 248.8 273.6 248.7C273.6 248.7 273.5 248.5 273.5 248.4C273.5 248.3 273.5 248.1 273.6 248.1C273.6 248.1 273.8 248 273.9 248H277C277.1 248 277.3 248 277.3 248.1C277.3 248.1 277.4 248.3 277.4 248.4C277.4 248.5 277.4 248.7 277.3 248.7C277.3 248.7 277.1 248.8 277 248.8ZM270.9 248.8H267.8C267.7 248.8 267.5 248.8 267.5 248.7C267.5 248.7 267.4 248.5 267.4 248.4C267.4 248.3 267.4 248.1 267.5 248.1C267.5 248.1 267.7 248 267.8 248H270.9C271 248 271.2 248 271.2 248.1C271.2 248.1 271.3 248.3 271.3 248.4C271.3 248.5 271.3 248.7 271.2 248.7C271.2 248.7 271 248.8 270.9 248.8ZM264.8 248.8H261.7C261.6 248.8 261.4 248.8 261.4 248.7C261.4 248.7 261.3 248.5 261.3 248.4C261.3 248.3 261.3 248.1 261.4 248.1C261.4 248.1 261.6 248 261.7 248H264.8C264.9 248 265.1 248 265.1 248.1C265.1 248.1 265.2 248.3 265.2 248.4C265.2 248.5 265.2 248.7 265.1 248.7C265.1 248.7 264.9 248.8 264.8 248.8ZM258.7 248.8H255.6C255.5 248.8 255.3 248.8 255.3 248.7C255.3 248.7 255.2 248.5 255.2 248.4C255.2 248.3 255.2 248.1 255.3 248.1C255.3 248.1 255.5 248 255.6 248H258.7C258.8 248 259 248 259 248.1C259 248.2 259.1 248.3 259.1 248.4C259.1 248.5 259.1 248.7 259 248.7C258.9 248.7 258.8 248.8 258.7 248.8ZM252.5 248.8H249.4C249.3 248.8 249.1 248.8 249.1 248.7C249.1 248.7 249 248.5 249 248.4C249 248.3 249 248.1 249.1 248.1C249.1 248.1 249.3 248 249.4 248H252.5C252.6 248 252.8 248 252.8 248.1C252.8 248.2 252.9 248.3 252.9 248.4C252.9 248.5 252.9 248.7 252.8 248.7C252.7 248.7 252.6 248.8 252.5 248.8ZM246.4 248.8H243.3C243.2 248.8 243 248.8 243 248.7C243 248.7 242.9 248.5 242.9 248.4C242.9 248.3 242.9 248.1 243 248.1C243 248.1 243.2 248 243.3 248H246.4C246.5 248 246.7 248 246.7 248.1C246.7 248.2 246.8 248.3 246.8 248.4C246.8 248.5 246.8 248.7 246.7 248.7C246.6 248.7 246.5 248.8 246.4 248.8ZM287.7 248.8H286.2C286.1 248.8 285.9 248.8 285.9 248.7C285.9 248.6 285.8 248.5 285.8 248.4C285.8 248.3 285.8 248.1 285.9 248.1C286 248.1 286.1 248 286.2 248H287.2V247C287.2 246.9 287.2 246.7 287.3 246.7C287.4 246.7 287.5 246.6 287.6 246.6C287.7 246.6 287.9 246.6 287.9 246.7C287.9 246.7 288 246.9 288 247V248.5C288 248.6 288 248.8 287.9 248.8C287.9 248.8 287.7 248.9 287.6 248.9L287.7 248.8ZM287.7 244.5C287.6 244.5 287.4 244.5 287.4 244.4C287.4 244.4 287.3 244.2 287.3 244.1V241.2C287.3 241.1 287.3 240.9 287.4 240.9C287.4 240.9 287.6 240.8 287.7 240.8C287.8 240.8 288 240.8 288 240.9C288 241 288.1 241.1 288.1 241.2V244.1C288.1 244.2 288.1 244.4 288 244.4C288 244.4 287.8 244.5 287.7 244.5ZM287.7 238.6C287.6 238.6 287.4 238.6 287.4 238.5C287.4 238.5 287.3 238.3 287.3 238.2V235.3C287.3 235.2 287.3 235 287.4 235C287.4 235 287.6 234.9 287.7 234.9C287.8 234.9 288 234.9 288 235C288 235.1 288.1 235.2 288.1 235.3V238.2C288.1 238.3 288.1 238.5 288 238.5C287.9 238.5 287.8 238.6 287.7 238.6ZM287.7 232.8C287.6 232.8 287.4 232.8 287.4 232.7C287.4 232.7 287.3 232.5 287.3 232.4V229.5C287.3 229.4 287.3 229.2 287.4 229.2C287.4 229.2 287.6 229.1 287.7 229.1C287.8 229.1 288 229.1 288 229.2C288 229.2 288.1 229.4 288.1 229.5V232.4C288.1 232.5 288.1 232.7 288 232.7C287.9 232.7 287.8 232.8 287.7 232.8ZM287.7 227C287.6 227 287.4 227 287.4 226.9C287.4 226.9 287.3 226.7 287.3 226.6V223.7C287.3 223.6 287.3 223.4 287.4 223.4C287.5 223.4 287.6 223.3 287.7 223.3C287.8 223.3 288 223.3 288 223.4C288 223.4 288.1 223.6 288.1 223.7V226.6C288.1 226.7 288.1 226.9 288 226.9C288 226.9 287.8 227 287.7 227ZM287.7 221.1C287.6 221.1 287.4 221.1 287.4 221C287.4 221 287.3 220.8 287.3 220.7V217.8C287.3 217.7 287.3 217.5 287.4 217.5C287.5 217.5 287.6 217.4 287.7 217.4C287.8 217.4 288 217.4 288 217.5C288 217.5 288.1 217.7 288.1 217.8V220.7C288.1 220.8 288.1 221 288 221C288 221 287.8 221.1 287.7 221.1ZM287.7 215.3C287.6 215.3 287.4 215.3 287.4 215.2C287.4 215.2 287.3 215 287.3 214.9V212C287.3 211.9 287.3 211.7 287.4 211.7C287.4 211.7 287.6 211.6 287.7 211.6C287.8 211.6 288 211.6 288 211.7C288 211.7 288.1 211.9 288.1 212V214.9C288.1 215 288.1 215.2 288 215.2C288 215.2 287.8 215.3 287.7 215.3ZM287.7 209.5C287.6 209.5 287.4 209.5 287.4 209.4C287.4 209.4 287.3 209.2 287.3 209.1V206.2C287.3 206.1 287.3 205.9 287.4 205.9C287.4 205.9 287.6 205.8 287.7 205.8C287.8 205.8 288 205.8 288 205.9C288 205.9 288.1 206.1 288.1 206.2V209.1C288.1 209.2 288.1 209.4 288 209.4C287.9 209.4 287.8 209.5 287.7 209.5ZM287.7 203.7C287.6 203.7 287.4 203.7 287.4 203.6C287.4 203.6 287.3 203.4 287.3 203.3V200.4C287.3 200.3 287.3 200.1 287.4 200.1C287.4 200.1 287.6 200 287.7 200C287.8 200 288 200 288 200.1C288 200.1 288.1 200.3 288.1 200.4V203.3C288.1 203.4 288.1 203.6 288 203.6C288 203.6 287.8 203.7 287.7 203.7ZM287.7 197.8C287.6 197.8 287.4 197.8 287.4 197.7C287.4 197.7 287.3 197.5 287.3 197.4V195.9C287.3 195.8 287.3 195.6 287.4 195.6C287.4 195.6 287.6 195.5 287.7 195.5C287.8 195.5 288 195.5 288 195.6C288 195.6 288.1 195.8 288.1 195.9V197.4C288.1 197.5 288.1 197.7 288 197.7C288 197.7 287.8 197.8 287.7 197.8ZM96.4004 287.8C91.3004 287.8 86.3004 286.5 81.8004 283.9C77.4004 281.4 73.7004 277.7 71.0004 273.3C68.4004 268.9 67.0004 263.9 66.9004 258.8C66.9004 253.7 68.1004 248.6 70.5004 244.2C70.5004 244.1 70.7004 244 70.8004 244C70.8004 244 70.9004 244 71.0004 244C71.0004 244 71.1004 244 71.2004 244C71.2004 244 71.3004 244 71.3004 244.1C71.3004 244.1 71.3004 244.2 71.3004 244.3C71.3004 244.3 71.3004 244.4 71.3004 244.5C71.3004 244.5 71.3004 244.6 71.3004 244.7C67.9004 250.8 67.0004 258 68.5004 264.8C70.1004 271.6 74.1004 277.6 79.8004 281.6C85.5004 285.6 92.5004 287.4 99.4004 286.6C106.3 285.8 112.8 282.5 117.4 277.3C122.1 272.1 124.6 265.4 124.7 258.4C124.7 251.4 122.2 244.7 117.5 239.4C112.9 234.2 106.5 230.8 99.5004 230C92.6004 229.2 85.6004 230.9 79.8004 235C79.8004 235 79.7004 235 79.6004 235C79.6004 235 79.5004 235 79.4004 235C79.4004 235 79.3004 235 79.2004 235C79.2004 235 79.1004 235 79.1004 234.9C79.1004 234.9 79.1004 234.8 79.1004 234.7C79.1004 234.7 79.1004 234.6 79.1004 234.5C79.1004 234.5 79.1004 234.4 79.1004 234.3C79.1004 234.3 79.1004 234.2 79.2004 234.2C83.0004 231.5 87.3004 229.8 91.9004 229.2C96.5004 228.5 101.1 229 105.5 230.5C109.9 232 113.8 234.5 117.1 237.8C120.3 241.1 122.7 245.1 124.1 249.5C125.5 253.9 125.8 258.6 125.1 263.2C124.3 267.8 122.5 272.1 119.8 275.8C117.1 279.5 113.5 282.6 109.4 284.7C105.3 286.8 100.7 287.9 96.1004 287.9L96.4004 287.8Z" fill="#6A6AF4"/>
<path d="M76.7012 257.4L82.0012 252.1L97.6012 267.7L92.3012 273L76.7012 257.4Z" fill="#6A6AF4"/>
<path d="M110.9 243.8L116.2 249.1L92.3 273L87 267.7L110.9 243.8Z" fill="#6A6AF4"/>
<path d="M115.6 181.5H70.8996C69.8996 181.5 68.8996 181.1 68.1996 180.3C67.4996 179.6 67.0996 178.6 67.0996 177.6V151.6C67.0996 150.6 67.4996 149.6 68.1996 148.8C68.8996 148.1 69.8996 147.7 70.9996 147.7H106.1C107.1 147.7 108.1 148.1 108.9 148.8C109.6 149.5 110 150.5 110 151.6V173.5L116 180.7C116 180.7 116 180.9 116.1 180.9C116.1 180.9 116.1 181.1 116.1 181.2C116.1 181.2 116 181.4 115.9 181.4C115.9 181.4 115.7 181.4 115.6 181.4V181.5ZM70.8996 180.5H114.5L109 174C109 174 108.9 173.8 108.9 173.7V151.6C108.9 150.8 108.6 150.1 108 149.5C107.5 149 106.7 148.6 105.9 148.6H70.7996C69.9996 148.6 69.2996 148.9 68.6996 149.5C68.1996 150 67.7996 150.8 67.7996 151.6V177.6C67.7996 178.4 68.0996 179.1 68.6996 179.7C69.1996 180.2 69.9996 180.6 70.7996 180.6L70.8996 180.5Z" fill="#3A3A3A"/>
<path d="M101.3 158.4H75.9996C75.8996 158.4 75.6996 158.4 75.6996 158.3C75.6996 158.3 75.5996 158.1 75.5996 158C75.5996 157.9 75.5996 157.7 75.6996 157.7C75.6996 157.7 75.8996 157.6 75.9996 157.6H101.3C101.4 157.6 101.6 157.6 101.6 157.7C101.6 157.8 101.7 157.9 101.7 158C101.7 158.1 101.7 158.3 101.6 158.3C101.6 158.3 101.4 158.4 101.3 158.4ZM101.3 165.4H75.9996C75.8996 165.4 75.6996 165.4 75.6996 165.3C75.6996 165.3 75.5996 165.1 75.5996 165C75.5996 164.9 75.5996 164.7 75.6996 164.7C75.6996 164.7 75.8996 164.6 75.9996 164.6H101.3C101.4 164.6 101.6 164.6 101.6 164.7C101.6 164.8 101.7 164.9 101.7 165C101.7 165.1 101.7 165.3 101.6 165.3C101.5 165.3 101.4 165.4 101.3 165.4ZM94.4996 172.4H75.9996C75.8996 172.4 75.6996 172.4 75.6996 172.3C75.6996 172.3 75.5996 172.1 75.5996 172C75.5996 171.9 75.5996 171.7 75.6996 171.7C75.6996 171.7 75.8996 171.6 75.9996 171.6H94.4996C94.5996 171.6 94.7996 171.6 94.7996 171.7C94.7996 171.7 94.8996 171.9 94.8996 172C94.8996 172.1 94.8996 172.3 94.7996 172.3C94.7996 172.3 94.5996 172.4 94.4996 172.4Z" fill="#3A3A3A"/>
</g>
<defs>
<clipPath id="clip0_1664_44357">
<rect width="337" height="337" fill="white" transform="translate(0 0.5)"/>
</clipPath>
</defs>
</svg>
