<svg width="244" height="244" viewBox="0 0 244 244" fill="none" xmlns="http://www.w3.org/2000/svg">
<path fill-rule="evenodd" clip-rule="evenodd" d="M228.749 189.1C227.067 189.1 225.699 187.732 225.699 186.05C225.699 184.368 227.067 183 228.749 183C230.431 183 231.799 184.368 231.799 186.05C231.799 187.732 230.431 189.1 228.749 189.1Z" fill="#ECECFE"/>
<path fill-rule="evenodd" clip-rule="evenodd" d="M167.749 12.2C166.067 12.2 164.699 10.8318 164.699 9.15001C164.699 7.46809 166.067 6.10001 167.749 6.10001C169.431 6.10001 170.799 7.46809 170.799 9.15001C170.799 10.8318 169.431 12.2 167.749 12.2Z" fill="#ECECFE"/>
<path fill-rule="evenodd" clip-rule="evenodd" d="M9.14961 164.7C7.46784 164.7 6.09961 163.332 6.09961 161.65C6.09961 159.968 7.46784 158.6 9.14961 158.6C10.8314 158.6 12.1996 159.968 12.1996 161.65C12.1996 163.332 10.8314 164.7 9.14961 164.7Z" fill="#ECECFE"/>
<path fill-rule="evenodd" clip-rule="evenodd" d="M149.449 164.7C155.2 164.7 158.599 168.099 158.599 173.85C158.599 174.099 158.569 174.348 158.508 174.59C156.967 180.755 150.114 184.762 137.884 186.971L135.909 187.305C135.235 187.411 134.547 187.513 133.844 187.609L131.689 187.885C131.323 187.928 130.952 187.97 130.578 188.011L128.29 188.243L125.911 188.447L123.443 188.622L120.886 188.769C120.452 188.792 120.014 188.813 119.573 188.833L116.881 188.939L114.098 189.018L111.226 189.071L106.749 189.1C105.065 189.1 103.699 187.734 103.699 186.05C103.699 184.366 105.065 183 106.749 183L109.647 182.987C110.122 182.982 110.593 182.977 111.06 182.97L113.817 182.918L116.481 182.84L119.05 182.737L121.525 182.61L123.907 182.458L126.194 182.282L128.388 182.082C128.746 182.047 129.099 182.01 129.449 181.973L131.501 181.739C132.504 181.616 133.471 181.484 134.403 181.345L136.219 181.054L137.941 180.742L139.568 180.409C146.942 178.804 151.226 176.515 152.389 173.717L152.49 173.438L152.47 173.079C152.328 171.437 151.651 170.875 149.852 170.807L149.449 170.8C146.281 170.8 142.944 172.468 139.406 176.007C137.568 177.845 134.482 176.679 134.217 174.197L134.199 173.85C134.199 171.468 133.531 170.8 131.149 170.8C127.981 170.8 124.644 172.468 121.106 176.007C119.915 177.198 117.984 177.198 116.793 176.007C115.601 174.816 115.601 172.884 116.793 171.693C121.388 167.098 126.184 164.7 131.149 164.7C134.641 164.7 137.266 165.953 138.789 168.224L138.908 168.418L139.505 168.004C142.485 165.991 145.542 164.879 148.667 164.72L149.449 164.7Z" fill="#E1000F"/>
<path d="M125.05 54.9C126.735 54.9 128.1 56.2655 128.1 57.95C128.1 59.5142 126.923 60.8033 125.406 60.9795L125.05 61H76.2504C74.5659 61 73.2004 59.6345 73.2004 57.95C73.2004 56.3859 74.3778 55.0967 75.8947 54.9205L76.2504 54.9H125.05Z" fill="#000091"/>
<path d="M158.6 76.25C158.6 74.5655 157.235 73.2 155.55 73.2H76.2504L75.8947 73.2205C74.3778 73.3967 73.2004 74.6859 73.2004 76.25C73.2004 77.9345 74.5659 79.3 76.2504 79.3H155.55L155.906 79.2795C157.423 79.1033 158.6 77.8142 158.6 76.25Z" fill="#000091"/>
<path d="M137.25 91.5C138.935 91.5 140.3 92.8655 140.3 94.55C140.3 96.1142 139.123 97.4033 137.606 97.5795L137.25 97.6H76.2504C74.5659 97.6 73.2004 96.2345 73.2004 94.55C73.2004 92.9859 74.3778 91.6967 75.8947 91.5205L76.2504 91.5H137.25Z" fill="#000091"/>
<path d="M158.6 112.85C158.6 111.166 157.235 109.8 155.55 109.8H76.2504L75.8947 109.821C74.3778 109.997 73.2004 111.286 73.2004 112.85C73.2004 114.534 74.5659 115.9 76.2504 115.9H155.55L155.906 115.879C157.423 115.703 158.6 114.414 158.6 112.85Z" fill="#000091"/>
<path d="M140.3 131.15C140.3 129.466 138.935 128.1 137.25 128.1H76.2504L75.8947 128.121C74.3778 128.297 73.2004 129.586 73.2004 131.15C73.2004 132.834 74.5659 134.2 76.2504 134.2H137.25L137.606 134.179C139.123 134.003 140.3 132.714 140.3 131.15Z" fill="#000091"/>
<path fill-rule="evenodd" clip-rule="evenodd" d="M57.9504 36.6H173.85C175.535 36.6 176.9 37.9655 176.9 39.65V204.35C176.9 206.034 175.535 207.4 173.85 207.4H57.9504C56.2659 207.4 54.9004 206.034 54.9004 204.35V39.65C54.9004 37.9655 56.2659 36.6 57.9504 36.6ZM170.8 201.3V42.7H61.0004V201.3H170.8Z" fill="#000091"/>
<path d="M186.05 61C187.615 61 188.904 62.1774 189.08 63.6943L189.1 64.05V216.55C189.1 218.114 187.923 219.403 186.406 219.579L186.05 219.6H82.3504C80.6659 219.6 79.3004 218.234 79.3004 216.55C79.3004 214.986 80.4778 213.697 81.9947 213.521L82.3504 213.5H183V64.05C183 62.4859 184.178 61.1967 185.695 61.0205L186.05 61Z" fill="#000091"/>
</svg>
