<svg width="40" height="40" viewBox="0 0 40 40" fill="none" xmlns="http://www.w3.org/2000/svg">
<g id="music-2">
<path id="Ic&#195;&#180;ne" fill-rule="evenodd" clip-rule="evenodd" d="M33.3348 5V28.3333C33.3341 31.3506 31.3071 33.9912 28.3925 34.7716C25.4779 35.5521 22.4026 34.2777 20.8942 31.6645C19.3859 29.0514 19.8207 25.7509 21.9543 23.6175C24.088 21.4841 27.3885 21.0497 30.0015 22.5583V8.33333H15.0015V28.3333C15.0008 31.3506 12.9737 33.9912 10.0592 34.7716C7.14461 35.5521 4.06924 34.2777 2.56091 31.6645C1.05259 29.0514 1.48739 25.7509 3.62101 23.6175C5.75464 21.4841 9.05512 21.0497 11.6681 22.5583V5H33.3348ZM8.33479 25C6.49384 25 5.00146 26.4924 5.00146 28.3333C5.00146 30.1743 6.49384 31.6667 8.33479 31.6667C10.1757 31.6667 11.6681 30.1743 11.6681 28.3333C11.6681 26.4924 10.1757 25 8.33479 25ZM26.6681 25C24.8272 25 23.3348 26.4924 23.3348 28.3333C23.3348 30.1743 24.8272 31.6667 26.6681 31.6667C28.5091 31.6667 30.0015 30.1743 30.0015 28.3333C30.0015 26.4924 28.5091 25 26.6681 25Z" fill="#000091"/>
</g>
</svg>
