<svg width="24" height="24" viewBox="0 0 24 24" fill="none" xmlns="http://www.w3.org/2000/svg">
<g clip-path="url(#clip0_2958_161642)">
<path d="M16.8281 21.681V22.5234C14.843 22.5234 12.7717 21.3867 11.3449 20.3974C10.3433 19.703 10.3433 18.219 11.3449 17.5245C12.7717 16.5352 14.843 15.3984 16.8281 15.3984V16.2409C15.7534 16.5303 14.7157 17.2018 13.9428 17.8053C13.2274 18.364 13.2274 19.5579 13.9428 20.1166C14.7157 20.7202 15.7534 21.3915 16.8281 21.681ZM5.625 1.47656C3.03614 1.47656 0.9375 3.5752 0.9375 6.16406V14.2266C0.9375 16.8154 3.03614 18.9141 5.625 18.9141L7.15617 18.9048C7.15828 18.8493 7.16044 18.7937 7.16245 18.7382C5.19333 18.1828 3.75 16.3734 3.75 14.2266V6.16406C3.75 3.5752 5.84864 1.47656 8.4375 1.47656H5.625Z" fill="#E3E3FD"/>
<path d="M6.84375 19.8516H5.625C2.52338 19.8516 0 17.3282 0 14.2266V6.16406C0 3.06244 2.52338 0.539062 5.625 0.539062H18.375C21.4766 0.539062 24 3.06244 24 6.16406V13.7578C24 14.2756 23.5803 14.6953 23.0625 14.6953C22.5447 14.6953 22.125 14.2756 22.125 13.7578V6.16406C22.125 4.09631 20.4427 2.41406 18.375 2.41406H5.625C3.55725 2.41406 1.875 4.09631 1.875 6.16406V14.2266C1.875 16.2943 3.55725 17.9766 5.625 17.9766H6.84375C7.36153 17.9766 7.78125 18.3963 7.78125 18.9141C7.78125 19.4318 7.36153 19.8516 6.84375 19.8516ZM22.8455 21.1678C23.5684 20.6666 24 19.8416 24 18.9609C24 18.0803 23.5684 17.2553 22.8455 16.7541C21.3368 15.708 19.0682 14.4609 16.8281 14.4609C14.5881 14.4609 12.3194 15.708 10.8107 16.7541C10.0878 17.2553 9.65625 18.0803 9.65625 18.9609C9.65625 19.8416 10.0878 20.6666 10.8107 21.1678C12.3194 22.2139 14.5881 23.4609 16.8281 23.4609C19.0682 23.4609 21.3368 22.2139 22.8455 21.1678ZM21.7771 18.2949C21.9982 18.4482 22.125 18.6909 22.125 18.9609C22.125 19.2309 21.9982 19.4737 21.7771 19.627C20.4883 20.5206 18.5835 21.5859 16.8281 21.5859C15.0728 21.5859 13.168 20.5206 11.8792 19.627C11.658 19.4737 11.5312 19.2309 11.5312 18.9609C11.5312 18.6909 11.658 18.4482 11.8792 18.2949C13.168 17.4013 15.0728 16.3359 16.8281 16.3359C18.5835 16.3359 20.4883 17.4013 21.7771 18.2949ZM11.3449 17.5245H11.3454H11.3449Z" fill="#000091"/>
<path d="M19.3125 7.05469H4.6875C4.16972 7.05469 3.75 6.63497 3.75 6.11719C3.75 5.59941 4.16972 5.17969 4.6875 5.17969H19.3125C19.8303 5.17969 20.25 5.59941 20.25 6.11719C20.25 6.63497 19.8303 7.05469 19.3125 7.05469ZM20.25 9.86719C20.25 9.34941 19.8303 8.92969 19.3125 8.92969H4.6875C4.16972 8.92969 3.75 9.34941 3.75 9.86719C3.75 10.385 4.16972 10.8047 4.6875 10.8047H19.3125C19.8303 10.8047 20.25 10.385 20.25 9.86719ZM16.875 20.1328C17.5222 20.1328 18.0469 19.6081 18.0469 18.9609C18.0469 18.3137 17.5222 17.7891 16.875 17.7891C16.2278 17.7891 15.7031 18.3137 15.7031 18.9609C15.7031 19.6081 16.2278 20.1328 16.875 20.1328Z" fill="#0063CB"/>
</g>
<defs>
<clipPath id="clip0_2958_161642">
<rect width="24" height="24" fill="white"/>
</clipPath>
</defs>
</svg>
