<svg width="32" height="32" viewBox="0 0 32 32" fill="none" xmlns="http://www.w3.org/2000/svg">
<g id="money-euro-box">
<path id="Ic&#195;&#180;ne" fill-rule="evenodd" clip-rule="evenodd" d="M28.0003 4C28.7367 4 29.3337 4.59695 29.3337 5.33333V26.6667C29.3337 27.403 28.7367 28 28.0003 28H4.00033C3.26395 28 2.66699 27.403 2.66699 26.6667V5.33333C2.66699 4.59695 3.26395 4 4.00033 4H28.0003ZM26.667 6.66667H5.33366V25.3333H26.667V6.66667ZM21.087 11.276L18.819 12.7867C17.9199 12.0264 16.6864 11.7968 15.574 12.1827C14.4616 12.5687 13.6353 13.5129 13.4003 14.6667H20.0003V17.3333H13.4003C13.6353 18.4871 14.4616 19.4313 15.574 19.8173C16.6864 20.2032 17.9199 19.9736 18.819 19.2133L21.0857 20.724C19.495 22.4557 17.0393 23.0986 14.8042 22.3685C12.569 21.6385 10.9662 19.6701 10.7043 17.3333H9.33366V14.6667H10.703C10.964 12.3287 12.5673 10.359 14.8035 9.62876C17.0398 8.89855 19.4966 9.54259 21.087 11.276Z" fill="#000091"/>
</g>
</svg>
