<svg width="40" height="40" viewBox="0 0 40 40" fill="none" xmlns="http://www.w3.org/2000/svg">
<g id="bus">
<path id="Ic&#195;&#180;ne" fill-rule="evenodd" clip-rule="evenodd" d="M31.6654 5C33.5063 5 34.9987 6.49238 34.9987 8.33333V13.3333H36.6654V20H34.9987V33.3333H33.332V35C33.332 35.9205 32.5858 36.6667 31.6654 36.6667H29.9987C29.0782 36.6667 28.332 35.9205 28.332 35V33.3333H11.6654V35C11.6654 35.9205 10.9192 36.6667 9.9987 36.6667H8.33203C7.41156 36.6667 6.66536 35.9205 6.66536 35V33.3333H4.9987V20H3.33203V13.3333H4.9987V8.33333C4.9987 6.49238 6.49108 5 8.33203 5H31.6654ZM31.6654 23.3333H8.33203V30H31.6654V23.3333ZM16.6654 25V28.3333H9.9987V25H16.6654ZM29.9987 25V28.3333H23.332V25H29.9987ZM31.6654 8.33333H8.33203V20H31.6654V8.33333Z" fill="#000091"/>
</g>
</svg>
