<svg width="32" height="32" viewBox="0 0 32 32" fill="none" xmlns="http://www.w3.org/2000/svg">
<g id="file-text">
<path id="Ic&#195;&#180;ne" fill-rule="evenodd" clip-rule="evenodd" d="M19.996 2.66699L28 10.667V27.991C28.0025 28.3446 27.8644 28.6847 27.6161 28.9365C27.3678 29.1883 27.0296 29.3312 26.676 29.3337H5.324C4.5933 29.3337 4.00074 28.7417 4 28.011V3.98966C4 3.27366 4.59867 2.66699 5.336 2.66699H19.996ZM18.6667 5.33366H6.66667V26.667H25.3333V12.0003H18.6667V5.33366ZM10.6667 9.33366H14.6667V12.0003H10.6667V9.33366ZM10.6667 14.667H21.3333V17.3337H10.6667V14.667ZM10.6667 20.0003H21.3333V22.667H10.6667V20.0003Z" fill="#000091"/>
</g>
</svg>
