<svg width="24" height="24" viewBox="0 0 24 24" fill="none" xmlns="http://www.w3.org/2000/svg">
<g clip-path="url(#clip0_2958_161679)">
<path d="M3.75 18.375V5.625C3.75 3.03614 5.84864 0.9375 8.4375 0.9375H5.625C3.03614 0.9375 0.9375 3.03614 0.9375 5.625V18.375C0.9375 20.9638 3.03614 23.0625 5.625 23.0625L8.06522 23.0478C5.65045 22.858 3.75 20.8385 3.75 18.375Z" fill="#E3E3FD"/>
<path d="M17.0625 20.4375C16.822 20.4375 16.5816 20.3456 16.3985 20.1618C16.033 19.7951 16.034 19.2015 16.4007 18.836L18.1018 17.1407C18.2779 16.9651 18.375 16.7316 18.375 16.4835C18.375 16.2365 18.2789 16.0042 18.1043 15.8288L16.4073 14.1705C16.037 13.8087 16.0301 13.2151 16.392 12.8448C16.7539 12.4745 17.3475 12.4676 17.7177 12.8295L19.4188 14.4917C19.421 14.4939 19.4233 14.4961 19.4255 14.4984C19.9572 15.0285 20.25 15.7335 20.25 16.4836C20.25 17.2336 19.9572 17.9386 19.4255 18.4687L17.7243 20.1641C17.5413 20.3464 17.3018 20.4375 17.0625 20.4375ZM16.5469 16.4063C16.5469 15.8885 16.1272 15.4688 15.6094 15.4688H12.6563C12.1385 15.4688 11.7188 15.8885 11.7188 16.4063C11.7188 16.9241 12.1385 17.3438 12.6563 17.3438H15.6094C16.1272 17.3438 16.5469 16.9241 16.5469 16.4063Z" fill="#0063CB"/>
<path d="M18.375 24H5.625C2.52338 24 0 21.4766 0 18.375V5.625C0 2.52338 2.52338 0 5.625 0H18.375C21.4766 0 24 2.52338 24 5.625V18.375C24 21.4766 21.4766 24 18.375 24ZM5.625 1.875C3.55725 1.875 1.875 3.55725 1.875 5.625V18.375C1.875 20.4427 3.55725 22.125 5.625 22.125H18.375C20.4427 22.125 22.125 20.4427 22.125 18.375V5.625C22.125 3.55725 20.4427 1.875 18.375 1.875H5.625ZM20.25 6.04688C20.25 5.52909 19.8303 5.10938 19.3125 5.10938H4.6875C4.16972 5.10938 3.75 5.52909 3.75 6.04688C3.75 6.56466 4.16972 6.98438 4.6875 6.98438H19.3125C19.8303 6.98438 20.25 6.56466 20.25 6.04688ZM7.60153 16.4118C7.96702 16.045 7.96598 15.4515 7.59928 15.086L5.89833 13.3908C5.72208 13.2151 5.625 12.9816 5.625 12.7335C5.625 12.4866 5.72114 12.2542 5.89575 12.0788L7.59267 10.4205C7.96298 10.0587 7.96987 9.46509 7.608 9.09483C7.24603 8.72442 6.6525 8.71777 6.28228 9.0795L4.58123 10.7417C4.57898 10.7439 4.57673 10.7461 4.57448 10.7484C4.04283 11.2784 3.75 11.9835 3.75 12.7335C3.75005 13.4835 4.04283 14.1885 4.57467 14.7188L6.27572 16.414C6.45867 16.5964 6.69811 16.6875 6.9375 16.6875C7.17797 16.6875 7.41839 16.5955 7.60153 16.4118ZM12.2812 12.6562C12.2812 12.1385 11.8615 11.7188 11.3438 11.7188H8.39062C7.87284 11.7188 7.45312 12.1385 7.45312 12.6562C7.45312 13.174 7.87284 13.5938 8.39062 13.5938H11.3438C11.8615 13.5938 12.2812 13.174 12.2812 12.6562Z" fill="#000091"/>
</g>
<defs>
<clipPath id="clip0_2958_161679">
<rect width="24" height="24" fill="white"/>
</clipPath>
</defs>
</svg>
