<svg width="40" height="40" viewBox="0 0 40 40" fill="none" xmlns="http://www.w3.org/2000/svg">
<g id="parent">
<path id="Ic&#195;&#180;ne" fill-rule="evenodd" clip-rule="evenodd" d="M11.6654 19.9997C16.2677 19.9997 19.9987 23.7306 19.9987 28.333V34.9997H16.6654V28.333C16.6654 25.5716 14.4268 23.333 11.6654 23.333C8.90394 23.333 6.66536 25.5716 6.66536 28.333V34.9997H3.33203V28.333C3.33203 23.7306 7.06299 19.9997 11.6654 19.9997ZM32.9154 27.6712C35.2359 29.0109 36.6654 31.4868 36.6654 34.1663V34.9997H33.332V34.1663C33.332 31.8652 31.4666 29.9997 29.1654 29.9997C26.8642 29.9997 24.9987 31.8652 24.9987 34.1663V34.9997H21.6654V34.1663C21.6654 31.4868 23.0949 29.0109 25.4154 27.6712C27.7359 26.3314 30.5949 26.3314 32.9154 27.6712ZM29.1654 11.6663C32.8473 11.6663 35.832 14.6511 35.832 18.333C35.832 22.0149 32.8473 24.9997 29.1654 24.9997C25.4835 24.9997 22.4987 22.0149 22.4987 18.333C22.4987 14.6511 25.4835 11.6663 29.1654 11.6663ZM29.1654 14.9997C27.3244 14.9997 25.832 16.4921 25.832 18.333C25.832 20.174 27.3244 21.6663 29.1654 21.6663C31.0063 21.6663 32.4987 20.174 32.4987 18.333C32.4987 16.4921 31.0063 14.9997 29.1654 14.9997ZM11.6654 3.33301C15.8075 3.33301 19.1654 6.69087 19.1654 10.833C19.1654 14.9751 15.8075 18.333 11.6654 18.333C8.98587 18.333 6.50992 16.9035 5.17017 14.583C3.83043 12.2625 3.83043 9.40352 5.17017 7.08301C6.50992 4.7625 8.98587 3.33301 11.6654 3.33301ZM11.6654 6.66634C9.36418 6.66634 7.4987 8.53182 7.4987 10.833C7.4987 13.1342 9.36418 14.9997 11.6654 14.9997C13.9666 14.9997 15.832 13.1342 15.832 10.833C15.832 8.53182 13.9666 6.66634 11.6654 6.66634Z" fill="#000091"/>
</g>
</svg>
