<svg width="32" height="32" viewBox="0 0 32 32" fill="none" xmlns="http://www.w3.org/2000/svg">
<g id="survey">
<path id="Ic&#195;&#180;ne" fill-rule="evenodd" clip-rule="evenodd" d="M22.6667 2.66699V5.33366H26.676C27.4067 5.33366 28 5.92699 28 6.65766V28.0097C28 28.7403 27.4067 29.3337 26.676 29.3337H5.324C4.59333 29.3337 4 28.7403 4 28.0097V6.65766C4 5.92699 4.59333 5.33366 5.324 5.33366H9.33333V2.66699H22.6667ZM9.33333 8.00033H6.66667V26.667H25.3333V8.00033H22.6667V10.667H9.33333V8.00033ZM12 21.3337V24.0003H9.33333V21.3337H12ZM12 17.3337V20.0003H9.33333V17.3337H12ZM12 13.3337V16.0003H9.33333V13.3337H12ZM20 5.33366H12V8.00033H20V5.33366Z" fill="#000091"/>
</g>
</svg>
