<svg width="32" height="32" viewBox="0 0 32 32" fill="none" xmlns="http://www.w3.org/2000/svg">
<g id="terminal-window">
<path id="Ic&#195;&#180;ne" fill-rule="evenodd" clip-rule="evenodd" d="M28.0003 4C28.7367 4 29.3337 4.59695 29.3337 5.33333V26.6667C29.3337 27.403 28.7367 28 28.0003 28H4.00033C3.26395 28 2.66699 27.403 2.66699 26.6667V5.33333C2.66699 4.59695 3.26395 4 4.00033 4H28.0003ZM26.667 14.6667H5.33366V25.3333H26.667V14.6667ZM10.667 16V22.6667H6.66699V16H10.667ZM26.667 6.66667H5.33366V12H26.667V6.66667ZM9.33366 8V10.6667H6.66699V8H9.33366ZM14.667 8V10.6667H12.0003V8H14.667Z" fill="#000091"/>
</g>
</svg>
