<svg width="40" height="40" viewBox="0 0 40 40" fill="none" xmlns="http://www.w3.org/2000/svg">
<g id="car">
<path id="Ic&#195;&#180;ne" fill-rule="evenodd" clip-rule="evenodd" d="M29.4654 6.66699C30.7986 6.66699 32.0034 7.46165 32.5287 8.68699L36.6654 18.3337V35.0003C36.6654 35.9208 35.9192 36.667 34.9987 36.667H33.332C32.4116 36.667 31.6654 35.9208 31.6654 35.0003V33.3337H8.33203V35.0003C8.33203 35.9208 7.58584 36.667 6.66536 36.667H4.9987C4.07822 36.667 3.33203 35.9208 3.33203 35.0003V18.3337L7.46536 8.68699C7.99112 7.46053 9.19763 6.66581 10.532 6.66699H29.4654ZM33.332 21.667H6.66536V30.0003H33.332V21.667ZM10.832 23.3337C12.2127 23.3337 13.332 24.453 13.332 25.8337C13.332 27.2144 12.2127 28.3337 10.832 28.3337C9.45132 28.3337 8.33203 27.2144 8.33203 25.8337C8.33203 24.453 9.45132 23.3337 10.832 23.3337ZM29.1654 23.3337C30.5461 23.3337 31.6654 24.453 31.6654 25.8337C31.6654 27.2144 30.5461 28.3337 29.1654 28.3337C27.7847 28.3337 26.6654 27.2144 26.6654 25.8337C26.6654 24.453 27.7847 23.3337 29.1654 23.3337ZM29.467 10.0003H10.532L6.96036 18.3337H33.0387L29.467 10.0003Z" fill="#000091"/>
</g>
</svg>
