<svg width="32" height="32" viewBox="0 0 32 32" fill="none" xmlns="http://www.w3.org/2000/svg">
<g id="service">
<path id="Ic&#195;&#180;ne" d="M4.21517 5.95833C7.4471 2.7264 12.5965 2.58067 16.0014 5.52113C19.4041 2.58067 24.5535 2.7264 27.7854 5.95833C31.0115 9.18448 31.1625 14.3213 28.2383 17.7263L17.8859 28.1144C16.8918 29.1084 15.3082 29.1536 14.2606 28.2499L14.1147 28.1144L3.76221 17.7263C0.838035 14.3213 0.989022 9.18448 4.21517 5.95833ZM6.10078 7.84395C3.82458 10.1201 3.75955 13.7701 5.90569 16.1249L6.10078 16.3292L16.0003 26.2287L23.0705 19.1567L18.3573 14.4436L16.9431 15.8579C15.381 17.4199 12.8483 17.4199 11.2862 15.8579C9.72414 14.2957 9.72414 11.7631 11.2862 10.201L14.0878 7.39764C11.8042 5.56951 8.49467 5.65324 6.30513 7.64884L6.10078 7.84395ZM17.4145 11.6152C17.9351 11.0945 18.7794 11.0945 19.3001 11.6152L24.9561 17.2711L25.8998 16.3292C28.2429 13.9861 28.2429 10.1871 25.8998 7.84395C23.6235 5.56775 19.9735 5.50272 17.6189 7.64884L17.4145 7.84395L13.1718 12.0866C12.6883 12.5701 12.6538 13.3326 13.0682 13.8559L13.1718 13.9723C13.6554 14.4557 14.4178 14.4903 14.9411 14.0759L15.0575 13.9723L17.4145 11.6152Z" fill="#000091"/>
</g>
</svg>
