<svg class="fr-artwork" aria-hidden="true" width="80px" height="80px" viewBox="0 0 80 80" xmlns="http://www.w3.org/2000/svg">
	<style>
		.fr-artwork-decorative {
			fill: #ECECFF;
		}
		.fr-artwork-minor {
			fill: #E1000F;
		}
		.fr-artwork-major {
			fill: #000091;
		}
	</style>
	<symbol id="artwork-decorative">
		<path fill-rule="evenodd" clip-rule="evenodd" d="M7.4536 17.1324C6.8533 17.1324 6.3652 16.6443 6.3652 16.044C6.3652 15.4437 6.8533 14.9556 7.4536 14.9556C8.0539 14.9556 8.542 15.4437 8.542 16.044C8.542 16.6443 8.0539 17.1324 7.4536 17.1324Z"/>
		<path fill-rule="evenodd" clip-rule="evenodd" d="M64.7727 72.2909C64.1724 72.2909 63.6843 71.8028 63.6843 71.2025C63.6843 70.6022 64.1724 70.1141 64.7727 70.1141C65.373 70.1141 65.8611 70.6022 65.8611 71.2025C65.8611 71.8028 65.373 72.2909 64.7727 72.2909Z"/>
		<path fill-rule="evenodd" clip-rule="evenodd" d="M65.8611 11.0184C65.2608 11.0184 64.7727 10.5303 64.7727 9.93001C64.7727 9.32972 65.2608 8.84164 65.8611 8.84164C66.4614 8.84164 66.9495 9.32972 66.9495 9.93001C66.9495 10.5303 66.4614 11.0184 65.8611 11.0184Z"/>
		<path fill-rule="evenodd" clip-rule="evenodd" d="M20.5131 77.3187C19.9128 77.3187 19.4247 76.8306 19.4247 76.2303C19.4247 75.63 19.9128 75.1419 20.5131 75.1419C21.1134 75.1419 21.6015 75.63 21.6015 76.2303C21.6015 76.8306 21.1134 77.3187 20.5131 77.3187Z"/>
	</symbol>
	<symbol id="artwork-minor">
		<path d="M41.6289 26.0829C41.6289 24.9398 40.7014 24.0123 39.5583 24.0123C38.4152 24.0123 37.4877 24.9398 37.4877 26.0829C37.4877 27.226 38.4152 28.1535 39.5583 28.1535C40.7014 28.1535 41.6289 27.226 41.6289 26.0829Z"/>
		<path d="M41.6289 34.1536C41.6289 33.0105 40.7014 32.083 39.5583 32.083C38.4152 32.083 37.4877 33.0105 37.4877 34.1536V50.2247C37.4877 51.3678 38.4152 52.2953 39.5583 52.2953C40.7014 52.2953 41.6289 51.3678 41.6289 50.2247V34.1536Z"/>
	</symbol>
	<symbol id="artwork-major">
		<path fill-rule="evenodd" clip-rule="evenodd" d="M58.7851 12.0476C63.5775 12.0476 67.5383 16.8912 67.6432 22.7652L67.6464 23.0708V49.1793C67.6464 55.1168 63.9892 60.041 59.2365 60.2871L58.7851 60.2906H46.822L46.7713 60.3549C46.7094 60.4245 46.6401 60.5056 46.5637 60.5979L46.3257 60.8728L45.9487 61.2978L45.4139 61.8949L44.5811 63.0172L42.9708 65.0791L42.3168 65.9094L41.7629 66.5901L41.4571 66.9571L41.2447 67.2053L41.0576 67.4197L40.8919 67.6029L40.7433 67.7581L40.609 67.8882L40.4863 67.9958L40.3733 68.0826C40.353 68.0982 40.333 68.1133 40.3133 68.1279L40.2087 68.1972C40.1678 68.2237 40.1276 68.2479 40.0877 68.2696L39.988 68.3194C39.949 68.3349 39.9101 68.3485 39.8712 68.3603L39.774 68.3862L39.6745 68.4021L39.5715 68.4103L39.4651 68.4103L39.3621 68.4022L39.2626 68.386C39.2234 68.3791 39.1846 68.3697 39.1459 68.3579L39.051 68.3197L38.9551 68.2704C38.8951 68.2367 38.8342 68.1959 38.771 68.1475L38.6562 68.0568L38.5354 67.9529C38.5129 67.9335 38.4901 67.9129 38.4668 67.8912L38.3286 67.7626L38.1801 67.615L38.0196 67.4473L37.8449 67.2627L37.3003 66.5901L36.8412 66.0125L35.8827 64.8595L34.043 62.5844L33.5469 61.9297L33.2766 61.5933L32.9283 61.1578L32.7796 60.9826L32.4909 60.6486C32.4017 60.5498 32.3219 60.4627 32.2517 60.3871L32.0794 60.2232C31.9749 60.1213 31.8823 60.0343 31.8013 59.9622L31.6372 59.8173C31.573 59.7602 31.5134 59.7099 31.4584 59.6664L31.2989 59.5544C31.2452 59.5196 31.1931 59.4885 31.1427 59.4609L30.9886 59.3772C30.9399 59.3549 30.8918 59.3354 30.8443 59.3185L30.6944 59.2679L30.5417 59.2325C30.4955 59.2235 30.4493 59.2167 30.403 59.2119L30.2551 59.1979L30.1001 59.1938L30.1003 59.1938H20.4996C15.7073 59.1938 11.7464 54.3502 11.6415 48.4762L11.6383 48.1706V30.9594C11.6383 30.4174 12.0791 29.9766 12.6211 29.9766C13.1245 29.9766 13.5421 30.3604 13.5983 30.8517L13.6038 30.9594V48.1706C13.6038 54.0895 16.4669 58.0486 20.2986 58.2236L20.4996 58.2282L30.2556 58.2283L30.3794 58.2336L30.4985 58.2465L30.614 58.2676L30.7283 58.2978L30.8435 58.3383L30.9619 58.3904L31.0859 58.4557L31.2181 58.5362L31.3604 58.6336L31.5159 58.7497L31.6876 58.8865L31.8782 59.0462L32.0909 59.2312L32.4733 59.6187L33.0114 60.2232L34.1979 61.5933L36.6835 64.5087L37.5024 65.5137L37.9664 66.0649L38.2481 66.3793C38.4756 66.6355 38.6703 66.8507 38.8314 67.0238L38.9089 67.1039L38.9864 67.0239C39.0742 66.9305 39.1721 66.8234 39.2798 66.7026L39.5993 66.334L39.9026 65.9818L40.3666 65.4182L41.2336 64.3384L43.6631 60.9917L44.3838 60.0692L44.8593 59.4798L45.1529 59.1333L45.344 58.9338L45.5177 58.7584C45.5441 58.7313 45.5699 58.7056 45.5953 58.6813L45.7479 58.5502L45.8894 58.4405C45.9127 58.4219 45.9357 58.4041 45.9584 58.387L46.0912 58.2937C46.1127 58.281 46.1341 58.269 46.1553 58.2578L46.2809 58.1935L46.4034 58.1422C46.4243 58.134 46.4451 58.1264 46.4659 58.1193L46.5894 58.0831C46.611 58.0778 46.6327 58.0732 46.6545 58.0692L46.7832 58.0518L46.9177 58.0448L46.9176 58.0448L58.7851 58.0449C62.6655 58.0449 65.628 54.3745 65.6746 49.4985L65.6796 49.1793V23.0708C65.6796 18.152 62.8164 14.1928 58.9848 14.018L58.7851 14.0133H20.4996C16.5611 14.0133 13.6038 18.0606 13.6038 23.0708C13.6038 23.6128 13.163 24.0536 12.6211 24.0536C12.0791 24.0536 11.6383 23.6128 11.6383 23.0708C11.6383 17.1333 15.2955 12.209 20.0482 11.9629L20.4996 11.9594H58.7851ZM61.7169 63.2263C61.7169 62.6843 62.1577 62.2435 62.6996 62.2435C63.2416 62.2435 63.6824 62.6843 63.6824 63.2263C63.6824 63.7683 63.2416 64.2091 62.6996 64.2091C62.1577 64.2091 61.7169 63.7683 61.7169 63.2263ZM59.7514 63.2263C59.7514 62.6843 59.3106 62.2435 58.7687 62.2435H48.6053L48.4762 62.2539C48.0102 62.3152 47.6397 62.7084 47.6397 63.2263C47.6397 63.7683 48.0805 64.2091 48.6225 64.2091H58.7687L58.8978 64.1987C59.3637 64.1374 59.7514 63.7442 59.7514 63.2263Z"/>
	</symbol>
	<use class="fr-artwork-decorative" href="#artwork-decorative"/>
	<use class="fr-artwork-minor" href="#artwork-minor"/>
	<use class="fr-artwork-major" href="#artwork-major"/>
</svg>